<svg width="0" height="0" class="hidden">
  <symbol aria-hidden="true" data-prefix="fal" data-icon="home" xmlns="http://www.w3.org/2000/svg" viewBox="0 0 576 512" id="home">
    <path fill="currentColor" d="M541 229.16l-61-49.83v-77.4a6 6 0 0 0-6-6h-20a6 6 0 0 0-6 6v51.33L308.19 39.14a32.16 32.16 0 0 0-40.38 0L35 229.16a8 8 0 0 0-1.16 11.24l10.1 12.41a8 8 0 0 0 11.2 1.19L96 220.62v243a16 16 0 0 0 16 16h128a16 16 0 0 0 16-16v-128l64 .3V464a16 16 0 0 0 16 16l128-.33a16 16 0 0 0 16-16V220.62L520.86 254a8 8 0 0 0 11.25-1.16l10.1-12.41a8 8 0 0 0-1.21-11.27zm-93.11 218.59h.1l-96 .3V319.88a16.05 16.05 0 0 0-15.95-16l-96-.27a16 16 0 0 0-16.05 16v128.14H128V194.51L288 63.94l160 130.57z"></path>
  </symbol>
  <symbol aria-hidden="true" data-prefix="fal" data-icon="industry-alt" xmlns="http://www.w3.org/2000/svg" viewBox="0 0 512 512" id="industry">
    <path fill="#fff" d="M404 384h-40c-6.627 0-12-5.373-12-12v-40c0-6.627 5.373-12 12-12h40c6.627 0 12 5.373 12 12v40c0 6.627-5.373 12-12 12zm-116-12v-40c0-6.627-5.373-12-12-12h-40c-6.627 0-12 5.373-12 12v40c0 6.627 5.373 12 12 12h40c6.627 0 12-5.373 12-12zm-128 0v-40c0-6.627-5.373-12-12-12h-40c-6.627 0-12 5.373-12 12v40c0 6.627 5.373 12 12 12h40c6.627 0 12-5.373 12-12zm352-188v272c0 13.255-10.745 24-24 24H24c-13.255 0-24-10.745-24-24V56c0-13.255 10.745-24 24-24h80c13.255 0 24 10.745 24 24v185.167l157.267-78.633C301.052 154.641 320 165.993 320 184v57.167l157.267-78.633C493.052 154.641 512 165.993 512 184zM96 280V64H32v384h448V196.944l-180.422 90.211C294.268 289.81 288 285.949 288 280v-83.056l-180.422 90.211C102.269 289.811 96 285.947 96 280z"></path>
  </symbol>
  <symbol aria-hidden="true" data-prefix="fal" data-icon="info-circle" xmlns="http://www.w3.org/2000/svg" viewBox="0 0 512 512" id="info">
    <path fill="currentColor" d="M256 40c118.621 0 216 96.075 216 216 0 119.291-96.61 216-216 216-119.244 0-216-96.562-216-216 0-119.203 96.602-216 216-216m0-32C119.043 8 8 119.083 8 256c0 136.997 111.043 248 248 248s248-111.003 248-248C504 119.083 392.957 8 256 8zm-36 344h12V232h-12c-6.627 0-12-5.373-12-12v-8c0-6.627 5.373-12 12-12h48c6.627 0 12 5.373 12 12v140h12c6.627 0 12 5.373 12 12v8c0 6.627-5.373 12-12 12h-72c-6.627 0-12-5.373-12-12v-8c0-6.627 5.373-12 12-12zm36-240c-17.673 0-32 14.327-32 32s14.327 32 32 32 32-14.327 32-32-14.327-32-32-32z"></path>
  </symbol>
  <symbol aria-hidden="true" data-prefix="fal" data-icon="map-marker-alt" xmlns="http://www.w3.org/2000/svg" viewBox="0 0 384 512" id="location">
    <path fill="currentColor" d="M192 96c-52.935 0-96 43.065-96 96s43.065 96 96 96 96-43.065 96-96-43.065-96-96-96zm0 160c-35.29 0-64-28.71-64-64s28.71-64 64-64 64 28.71 64 64-28.71 64-64 64zm0-256C85.961 0 0 85.961 0 192c0 77.413 26.97 99.031 172.268 309.67 9.534 13.772 29.929 13.774 39.465 0C357.03 291.031 384 269.413 384 192 384 85.961 298.039 0 192 0zm0 473.931C52.705 272.488 32 256.494 32 192c0-42.738 16.643-82.917 46.863-113.137S149.262 32 192 32s82.917 16.643 113.137 46.863S352 149.262 352 192c0 64.49-20.692 80.47-160 281.931z"></path>
  </symbol>
  <symbol aria-hidden="true" data-prefix="fal" data-icon="search-plus" xmlns="http://www.w3.org/2000/svg" viewBox="0 0 512 512" id="magnify">
    <path fill="currentColor" d="M319.8 204v8c0 6.6-5.4 12-12 12h-84v84c0 6.6-5.4 12-12 12h-8c-6.6 0-12-5.4-12-12v-84h-84c-6.6 0-12-5.4-12-12v-8c0-6.6 5.4-12 12-12h84v-84c0-6.6 5.4-12 12-12h8c6.6 0 12 5.4 12 12v84h84c6.6 0 12 5.4 12 12zm188.5 293L497 508.3c-4.7 4.7-12.3 4.7-17 0l-129-129c-2.3-2.3-3.5-5.3-3.5-8.5v-8.5C310.6 395.7 261.7 416 208 416 93.8 416 1.5 324.9 0 210.7-1.5 93.7 93.7-1.5 210.7 0 324.9 1.5 416 93.8 416 208c0 53.7-20.3 102.6-53.7 139.5h8.5c3.2 0 6.2 1.3 8.5 3.5l129 129c4.7 4.7 4.7 12.3 0 17zM384 208c0-97.3-78.7-176-176-176S32 110.7 32 208s78.7 176 176 176 176-78.7 176-176z"></path>
  </symbol>
  <symbol aria-hidden="true" data-prefix="fal" data-icon="envelope" xmlns="http://www.w3.org/2000/svg" viewBox="0 0 512 512" id="mail">
    <path fill="currentColor" d="M464 64H48C21.5 64 0 85.5 0 112v288c0 26.5 21.5 48 48 48h416c26.5 0 48-21.5 48-48V112c0-26.5-21.5-48-48-48zM48 96h416c8.8 0 16 7.2 16 16v41.4c-21.9 18.5-53.2 44-150.6 121.3-16.9 13.4-50.2 45.7-73.4 45.3-23.2.4-56.6-31.9-73.4-45.3C85.2 197.4 53.9 171.9 32 153.4V112c0-8.8 7.2-16 16-16zm416 320H48c-8.8 0-16-7.2-16-16V195c22.8 18.7 58.8 47.6 130.7 104.7 20.5 16.4 56.7 52.5 93.3 52.3 36.4.3 72.3-35.5 93.3-52.3 71.9-57.1 107.9-86 130.7-104.7v205c0 8.8-7.2 16-16 16z"></path>
  </symbol>
  <symbol viewBox="0 0 64 64" fill="none" xmlns="http://www.w3.org/2000/svg" id="media">
    <path d="M37 54h-2v-9.8a1 1 0 0 0-2 0V54H7V34h8.32a1 1 0 0 0 0-2H6a1 1 0 0 0-1 1v21H3a1 1 0 0 0-1 1v2a5 5 0 0 0 5 5h26a5 5 0 0 0 5-5v-2a1 1 0 0 0-1-1zm-1 3a3 3 0 0 1-3 3h-2v-1a1 1 0 0 0-2 0v1H11v-1a1 1 0 0 0-2 0v1H7a3 3 0 0 1-3-3v-1h32v1zM59 2H47a3 3 0 0 0-3 3v2a1 1 0 0 0 2 0V5a1 1 0 0 1 1-1h12a1 1 0 0 1 1 1v12a1 1 0 0 1-1 1H47a1 1 0 0 1-1-1v-6a1 1 0 0 0-2 0v6a3 3 0 0 0 3 3h12a3 3 0 0 0 3-3V5a3 3 0 0 0-3-3zM49 42a4 4 0 1 0 8 0 4 4 0 0 0-8 0zm6 0a2 2 0 1 1-4 0 2 2 0 0 1 4 0z"
      fill="currentColor"></path>
    <path d="M59 33H47a3 3 0 0 0-3 3v12a3 3 0 0 0 3 3h12a3 3 0 0 0 3-3v-2a1 1 0 0 0-2 0v2a1 1 0 0 1-1 1H47a1 1 0 0 1-1-1V36a1 1 0 0 1 1-1h12a1 1 0 0 1 1 1v6a1 1 0 0 0 2 0v-6a3 3 0 0 0-3-3zM24.47 13.85a1 1 0 0 0 .98.04l6-3a1 1 0 0 0 0-1.78l-6-3A1 1 0 0 0 24 7v6a1 1 0 0 0 .47.85zM26 8.62L28.76 10 26 11.38V8.62z"
      fill="currentColor"></path>
    <path d="M27 19a9 9 0 1 0 0-17.999A9 9 0 0 0 27 19zm0-16a7 7 0 1 1 0 14 7 7 0 0 1 0-14zm10 20a.999.999 0 0 0 .8-.4l3-4a1 1 0 1 0-1.6-1.2l-3 4A1 1 0 0 0 37 23zm2.2 3.6a1 1 0 0 0 1.4.2l4-3a1 1 0 1 0-1.2-1.6l-4 3a1 1 0 0 0-.2 1.4zm9.8 2.2a1.001 1.001 0 0 0-1.2-.8l-5 1a1.004 1.004 0 1 0 .2 2h.2l5-1a1.001 1.001 0 0 0 .8-1.2zM3 29h12a1 1 0 0 0 1-1V12a1 1 0 0 0-1-1H3a1 1 0 0 0-1 1v16a1 1 0 0 0 1 1zm1-16h10v14H4V13z"
      fill="currentColor"></path>
    <path d="M11 15H9a1 1 0 0 0 0 2h2a1 1 0 0 0 0-2zm0 4H7a1 1 0 0 0 0 2h4a1 1 0 0 0 0-2zm0 4H7a1 1 0 0 0 0 2h4a1 1 0 0 0 0-2zm25.12 5.7a1.003 1.003 0 1 0-1.74 1l4.41 7.63-16 6h-.15l-2.6 1.5-1.73 1a2 2 0 0 1-2.73-.73l-2-3.46a2 2 0 0 1 .75-2.64l3.46-2 2.5 4.33a1 1 0 0 0 .87.5 1 1 0 0 0 .87-1.5l-2.58-4.46L32 25.52l.41.71a1.004 1.004 0 0 0 1.74-1l-1-1.73a1 1 0 0 0-.69-.48 1.001 1.001 0 0 0-.82.21l-14 11.54-4.26 2.46a4 4 0 0 0-1.84 4.53l-1 .57a3 3 0 0 0 1.5 5.6 3.06 3.06 0 0 0 1.5-.4l1-.57a3.88 3.88 0 0 0 2.8 1.18 3.94 3.94 0 0 0 2-.54l.87-.5 2 3.47a3 3 0 0 0 4.971.328 3 3 0 0 0 .219-3.328l-1.82-3.17 15-5.63a1 1 0 0 0 .52-1.43l-4.98-8.64zM12.5 45.79a1.001 1.001 0 0 1-.76.1 1 1 0 0 1-.61-.46.998.998 0 0 1 .074-1.112 1 1 0 0 1 .296-.258l.87-.5 1 1.73-.87.5zm13.16 2.8a1.001 1.001 0 0 1 .1.76 1 1 0 0 1-.47.6 1 1 0 0 1-1.36-.36l-2-3.47 1.66-.95h.08l1.99 3.42z"
      fill="currentColor"></path>
  </symbol>
  <symbol xmlns="http://www.w3.org/2000/svg" viewBox="0 0 254.893 254.893" id="minisplit">
    <path d="M23.896 135.807h10.029s1.218-5.259 2.73-11.747c1.505-6.485 13.43-11.747 26.624-11.747h131.422c13.198 0 24.633 5.262 25.543 11.747l1.643 11.747h9.11c13.194 0 23.896-10.701 23.896-23.895V67.309c0-11.017-7.495-20.197-17.637-22.965.574 2.257.91 4.604.91 7.031v9.558c0 15.814-12.862 28.674-28.675 28.674H45.401c-15.814 0-28.674-12.86-28.674-28.674v-9.558c0-2.427.333-4.774.908-7.031C7.493 47.111 0 56.292 0 67.309v44.603c0 13.198 10.699 23.895 23.896 23.895z"></path>
    <path d="M45.401 80.054h164.076c10.548 0 19.116-8.574 19.116-19.117V51.38c0-2.854-.663-5.535-1.792-7.967H28.077c-1.125 2.432-1.792 5.112-1.792 7.967v9.558c0 10.542 8.578 19.116 19.116 19.116zm-9.483-28.178h180.41a2.39 2.39 0 1 1 0 4.78H35.918c-1.318 0-2.39-1.071-2.39-2.39s1.067-2.39 2.39-2.39zm0 14.936h180.41a2.39 2.39 0 1 1 0 4.779H35.918a2.392 2.392 0 0 1-2.39-2.39 2.388 2.388 0 0 1 2.39-2.389zm176.9 60.235c-.699-4.837-11.966-8.76-25.169-8.76H68.975c-13.193 0-24.611 3.922-25.487 8.76l-1.591 8.76h172.191l-1.27-8.76zM57.879 210.312a4.78 4.78 0 0 0 6.74-.48c.74-.859 17.978-21.114 4.907-37.561-7.25-9.129-1.893-14.432-.726-15.421a4.783 4.783 0 0 0 .721-6.683 4.782 4.782 0 0 0-6.716-.761c-5.007 3.99-11.616 15.145-.763 28.81 8.137 10.239-4.527 25.212-4.651 25.356a4.788 4.788 0 0 0 .488 6.74zm41.817 0a4.749 4.749 0 0 0 3.125 1.167c1.34 0 2.672-.561 3.615-1.647.74-.859 17.978-21.114 4.908-37.561-7.25-9.129-1.893-14.432-.726-15.421a4.78 4.78 0 0 0 .721-6.683 4.782 4.782 0 0 0-6.716-.761c-5.008 3.99-11.616 15.145-.763 28.81 8.137 10.239-4.527 25.212-4.651 25.356a4.787 4.787 0 0 0 .487 6.74zm41.82 0a4.783 4.783 0 0 0 6.739-.48c.737-.859 17.978-21.114 4.905-37.561-7.248-9.129-1.891-14.432-.724-15.421a4.782 4.782 0 0 0 .719-6.683 4.782 4.782 0 0 0-6.716-.761c-5.008 3.99-11.617 15.145-.761 28.81 8.134 10.239-4.527 25.212-4.653 25.356a4.781 4.781 0 0 0 .491 6.74zm41.816 0a4.78 4.78 0 0 0 6.739-.48c.737-.859 17.978-21.114 4.905-37.561-7.248-9.129-1.89-14.432-.724-15.421a4.78 4.78 0 0 0-5.997-7.444c-5.008 3.99-11.616 15.145-.761 28.81 8.135 10.239-4.526 25.212-4.653 25.356a4.783 4.783 0 0 0 .491 6.74z"></path>
  </symbol>
  <symbol aria-hidden="true" data-prefix="fal" data-icon="phone" xmlns="http://www.w3.org/2000/svg" viewBox="0 0 512 512" id="phone">
    <path fill="currentColor" d="M487.8 24.1L387 .8c-14.7-3.4-29.8 4.2-35.8 18.1l-46.5 108.5c-5.5 12.7-1.8 27.7 8.9 36.5l53.9 44.1c-34 69.2-90.3 125.6-159.6 159.6l-44.1-53.9c-8.8-10.7-23.8-14.4-36.5-8.9L18.9 351.3C5 357.3-2.6 372.3.8 387L24 487.7C27.3 502 39.9 512 54.5 512 306.7 512 512 307.8 512 54.5c0-14.6-10-27.2-24.2-30.4zM55.1 480l-23-99.6 107.4-46 59.5 72.8c103.6-48.6 159.7-104.9 208.1-208.1l-72.8-59.5 46-107.4 99.6 23C479.7 289.7 289.6 479.7 55.1 480z"></path>
  </symbol>
  <symbol aria-hidden="true" data-prefix="fal" data-icon="hand-pointer" xmlns="http://www.w3.org/2000/svg" viewBox="0 0 448 512" id="pointer">
    <path fill="currentColor" d="M360.543 188.156c-17.46-28.491-54.291-37.063-82.138-19.693-15.965-20.831-42.672-28.278-66.119-20.385V60.25c0-33.222-26.788-60.25-59.714-60.25S92.857 27.028 92.857 60.25v181.902c-20.338-13.673-47.578-13.89-68.389 1.472-26.556 19.605-32.368 57.08-13.132 83.926l114.271 159.5C136.803 502.673 154.893 512 174 512h185.714c27.714 0 51.832-19.294 58.145-46.528l28.571-123.25a60.769 60.769 0 0 0 1.57-13.723v-87c0-45.365-48.011-74.312-87.457-53.343zM82.097 275.588l28.258 39.439a7.999 7.999 0 1 0 14.503-4.659V60.25c0-37.35 55.428-37.41 55.428 0V241.5a8 8 0 0 0 8 8h7.144a8 8 0 0 0 8-8v-36.25c0-37.35 55.429-37.41 55.429 0v36.25a8 8 0 0 0 8 8H274a8 8 0 0 0 8-8v-21.75c0-37.351 55.429-37.408 55.429 0v21.75a8 8 0 0 0 8 8h7.143a8 8 0 0 0 8-8c0-37.35 55.429-37.41 55.429 0v87c0 2.186-.25 4.371-.742 6.496l-28.573 123.251C383.717 471.055 372.626 480 359.715 480H174c-8.813 0-17.181-4.332-22.381-11.588l-114.283-159.5c-22.213-31.004 23.801-62.575 44.761-33.324zM180.285 401v-87a8 8 0 0 1 8-8h7.144a8 8 0 0 1 8 8v87a8 8 0 0 1-8 8h-7.144a8 8 0 0 1-8-8zm78.572 0v-87a8 8 0 0 1 8-8H274a8 8 0 0 1 8 8v87a8 8 0 0 1-8 8h-7.143a8 8 0 0 1-8-8zm78.572 0v-87a8 8 0 0 1 8-8h7.143a8 8 0 0 1 8 8v87a8 8 0 0 1-8 8h-7.143a8 8 0 0 1-8-8z"></path>
  </symbol>
  <symbol aria-hidden="true" data-prefix="fal" data-icon="question-circle" xmlns="http://www.w3.org/2000/svg" viewBox="0 0 512 512" id="question">
    <path fill="currentColor" d="M256 340c-15.464 0-28 12.536-28 28s12.536 28 28 28 28-12.536 28-28-12.536-28-28-28zm7.67-24h-16c-6.627 0-12-5.373-12-12v-.381c0-70.343 77.44-63.619 77.44-107.408 0-20.016-17.761-40.211-57.44-40.211-29.144 0-44.265 9.649-59.211 28.692-3.908 4.98-11.054 5.995-16.248 2.376l-13.134-9.15c-5.625-3.919-6.86-11.771-2.645-17.177C185.658 133.514 210.842 116 255.67 116c52.32 0 97.44 29.751 97.44 80.211 0 67.414-77.44 63.849-77.44 107.408V304c0 6.627-5.373 12-12 12zM256 40c118.621 0 216 96.075 216 216 0 119.291-96.61 216-216 216-119.244 0-216-96.562-216-216 0-119.203 96.602-216 216-216m0-32C119.043 8 8 119.083 8 256c0 136.997 111.043 248 248 248s248-111.003 248-248C504 119.083 392.957 8 256 8z"></path>
  </symbol>
  <symbol aria-hidden="true" data-prefix="fas" data-icon="quote-left" xmlns="http://www.w3.org/2000/svg" viewBox="0 0 512 512" id="quote">
    <path fill="currentColor" d="M464 256h-80v-64c0-35.3 28.7-64 64-64h8c13.3 0 24-10.7 24-24V56c0-13.3-10.7-24-24-24h-8c-88.4 0-160 71.6-160 160v240c0 26.5 21.5 48 48 48h128c26.5 0 48-21.5 48-48V304c0-26.5-21.5-48-48-48zm-288 0H96v-64c0-35.3 28.7-64 64-64h8c13.3 0 24-10.7 24-24V56c0-13.3-10.7-24-24-24h-8C71.6 32 0 103.6 0 192v240c0 26.5 21.5 48 48 48h128c26.5 0 48-21.5 48-48V304c0-26.5-21.5-48-48-48z"></path>
  </symbol>
  <symbol viewBox="0 0 512 512" xmlns="http://www.w3.org/2000/svg" id="repeat">
    <path d="M.003 372.765a10 10 0 0 0 5.249 8.556l123.11 66.42a10 10 0 0 0 14.742-8.45l4.96-141.42a10 10 0 0 0-14.993-9.011l-25.275 14.591A139.865 139.865 0 0 1 104 271c0-43.742 20.181-84.241 55.369-111.112a10.003 10.003 0 0 0-.769-16.428l-53.36-33.35a10.003 10.003 0 0 0-12.171 1.214C49.267 152.746 24 209.839 24 271c0 25.339 4.254 50.097 12.657 73.717L4.826 363.963a9.997 9.997 0 0 0-4.823 8.802zm54.121-15.237a9.999 9.999 0 0 0 4.111-12.27C48.79 321.633 44 296.649 44 271c0-52.743 20.293-102.074 57.318-139.756l34.979 21.862C102.894 183.466 84 225.701 84 271c0 17.32 2.768 34.372 8.227 50.684 2.003 5.984 9.002 8.653 14.482 5.487l20.734-11.969-3.763 107.289-93.536-50.464zM305.848 1.254a9.999 9.999 0 0 0-10.147.267l-120 75a10 10 0 0 0 0 16.96l120 75a9.999 9.999 0 0 0 15.299-8.48v-29.177c54.147 16.224 94.325 64.604 99.44 121.552.643 7.158 8.378 11.272 14.655 7.935l56.12-29.84a10 10 0 0 0 5.092-10.884C467.995 132.369 398.113 64.658 311 48.633V10a10 10 0 0 0-5.152-8.746zM465.06 216.408l-36.695 19.511c-11.797-64.411-62.352-114.855-125.366-127.708-6.185-1.261-11.999 3.465-11.999 9.798v23.948L199.868 85 291 28.043V57.13a9.999 9.999 0 0 0 8.584 9.899c80.313 11.487 145.931 71.087 165.476 149.379z"></path>
    <circle cx="388" cy="480" r="10"></circle>
    <path d="M453.157 415.719c-9.435 11.966-20.562 22.938-33.071 32.612-4.369 3.378-5.172 9.659-1.793 14.028s9.658 5.173 14.028 1.793c11.443-8.849 21.852-18.701 31.029-29.361l33.666 19.358a10 10 0 0 0 14.978-9.031l-5.12-141.42a10.001 10.001 0 0 0-14.688-8.468l-124.95 66.42a10 10 0 0 0-.306 17.49l25.116 14.5C366.115 417.53 328.888 432 292 432c-26.48 0-52.274-7.462-74.594-21.581a10 10 0 0 0-15.339 8.1l-2.33 66.4a10 10 0 0 0 6.073 9.55C233.103 506.102 262.102 512 292 512c18.804 0 37.686-2.367 56.122-7.034 5.354-1.355 8.596-6.794 7.24-12.148-1.355-5.354-6.794-8.595-12.148-7.24C326.381 489.839 309.15 492 292 492c-24.892 0-49.089-4.492-72.031-13.362l1.51-43.039C243.333 446.368 267.409 452 292 452c46.79 0 94.189-20.666 123.701-53.934 4.192-4.727 3.005-12.13-2.481-15.297l-20.663-11.929 94.908-50.451 3.89 107.433-25.359-14.582a10.004 10.004 0 0 0-12.839 2.479z"></path>
  </symbol>
  <symbol aria-hidden="true" data-prefix="fal" data-icon="rv" xmlns="http://www.w3.org/2000/svg" viewBox="0 0 640 512" id="rv">
    <path fill="currentColor" d="M304 128H112c-8.8 0-16 7.2-16 16v96c0 8.8 7.2 16 16 16h192c8.8 0 16-7.2 16-16v-96c0-8.8-7.2-16-16-16zm-16 96H128v-64h160v64zm288.1-32H600c22.1 0 40-17.9 40-40 0-66.3-53.7-120-120-120H384V16c0-8.8-7.2-16-16-16H240c-8.8 0-16 7.2-16 16v16H64C28.7 32 0 60.7 0 96v197.5c0 17 6.7 33.2 18.7 45.2l69.7 69.7c2.8 2.8 6.1 4.6 9.7 5.9C96.8 420 96 425.9 96 432c0 44.2 35.8 80 80 80s80-35.8 80-80c0-5.5-.6-10.8-1.6-16h163.2c-1.1 5.2-1.6 10.5-1.6 16 0 44.2 35.8 80 80 80s80-35.8 80-80c0-5.5-.6-10.8-1.6-16H608c17.6 0 32-14.4 32-32V282.4c0-17-6.7-33.2-18.7-45.2L576.1 192zm18.7 64H416v-64h101.5c8.6 0 16.7 3.4 22.8 9.4l54.5 54.6zM176 480c-26.5 0-48-21.5-48-48s21.5-48 48-48 48 21.5 48 48-21.5 48-48 48zm208-96H239.6C225 364.7 202 352 176 352s-49 12.7-63.6 32h-3.1l-67.9-67.9c-6-6-9.4-14.1-9.4-22.6V96c0-17.7 14.3-32 32-32h456c48.5 0 88 39.5 88 88 0 4.4-3.6 8-8 8H384v224zm112 96c-26.5 0-48-21.5-48-48s21.5-48 48-48 48 21.5 48 48-21.5 48-48 48zm112-96h-48.4C545 364.7 522 352 496 352s-49 12.7-63.6 32H416v-96h192v96z"></path>
  </symbol>
  <symbol aria-hidden="true" data-prefix="fal" data-icon="wrench" xmlns="http://www.w3.org/2000/svg" viewBox="0 0 512 512" id="spanner">
    <path fill="currentColor" d="M507.42 114.49c-2.34-9.47-9.66-16.98-19.06-19.61-9.47-2.61-19.65 0-26.65 6.98l-63.87 63.87-44.25-7.36-7.38-44.24 63.87-63.87c6.94-6.92 9.62-17.09 7-26.54-2.62-9.47-10.19-16.83-19.75-19.2C345.6-8.31 291.95 6.54 254.14 44.3c-37.84 37.87-52.21 92.52-38.62 144.7L22.19 382.29c-29.59 29.63-29.59 77.83 0 107.45C36.54 504.09 55.63 512 75.94 512s39.37-7.91 53.71-22.26l193.14-193.11c52.03 13.73 106.8-.72 144.89-38.82 37.81-37.81 52.68-91.39 39.74-143.32zm-62.36 120.7c-31.87 31.81-78.43 42.63-121.77 28.23l-9.38-3.14-206.88 206.84c-16.62 16.62-45.59 16.62-62.21 0-17.12-17.14-17.12-45.06 0-62.21l207.01-206.98-3.09-9.34c-14.31-43.45-3.56-90.06 28.03-121.67C299.48 44.2 329.44 32 360.56 32c6.87 0 13.81.59 20.72 1.81l-69.31 69.35 13.81 83.02L408.84 200l69.3-69.35c6.72 38.25-5.34 76.79-33.08 104.54zM80 416c-8.84 0-16 7.16-16 16s7.16 16 16 16 16-7.16 16-16-7.16-16-16-16z"></path>
  </symbol>
  <symbol aria-hidden="true" data-prefix="far" data-icon="check" xmlns="http://www.w3.org/2000/svg" viewBox="0 0 512 512" id="tick">
    <path fill="currentColor" d="M435.848 83.466L172.804 346.51l-96.652-96.652c-4.686-4.686-12.284-4.686-16.971 0l-28.284 28.284c-4.686 4.686-4.686 12.284 0 16.971l133.421 133.421c4.686 4.686 12.284 4.686 16.971 0l299.813-299.813c4.686-4.686 4.686-12.284 0-16.971l-28.284-28.284c-4.686-4.686-12.284-4.686-16.97 0z"></path>
  </symbol>
  <symbol aria-hidden="true" data-prefix="fal" data-icon="check-circle" xmlns="http://www.w3.org/2000/svg" viewBox="0 0 512 512" id="tick-circle">
    <path fill="currentColor" d="M256 8C119.033 8 8 119.033 8 256s111.033 248 248 248 248-111.033 248-248S392.967 8 256 8zm0 464c-118.664 0-216-96.055-216-216 0-118.663 96.055-216 216-216 118.664 0 216 96.055 216 216 0 118.663-96.055 216-216 216zm141.63-274.961L217.15 376.071c-4.705 4.667-12.303 4.637-16.97-.068l-85.878-86.572c-4.667-4.705-4.637-12.303.068-16.97l8.52-8.451c4.705-4.667 12.303-4.637 16.97.068l68.976 69.533 163.441-162.13c4.705-4.667 12.303-4.637 16.97.068l8.451 8.52c4.668 4.705 4.637 12.303-.068 16.97z"></path>
  </symbol>
  <symbol aria-hidden="true" data-prefix="fab" data-icon="twitter" xmlns="http://www.w3.org/2000/svg" viewBox="0 0 512 512" id="twitter">
    <path fill="currentColor" d="M459.37 151.716c.325 4.548.325 9.097.325 13.645 0 138.72-105.583 298.558-298.558 298.558-59.452 0-114.68-17.219-161.137-47.106 8.447.974 16.568 1.299 25.34 1.299 49.055 0 94.213-16.568 130.274-44.832-46.132-.975-84.792-31.188-98.112-72.772 6.498.974 12.995 1.624 19.818 1.624 9.421 0 18.843-1.3 27.614-3.573-48.081-9.747-84.143-51.98-84.143-102.985v-1.299c13.969 7.797 30.214 12.67 47.431 13.319-28.264-18.843-46.781-51.005-46.781-87.391 0-19.492 5.197-37.36 14.294-52.954 51.655 63.675 129.3 105.258 216.365 109.807-1.624-7.797-2.599-15.918-2.599-24.04 0-57.828 46.782-104.934 104.934-104.934 30.213 0 57.502 12.67 76.67 33.137 23.715-4.548 46.456-13.32 66.599-25.34-7.798 24.366-24.366 44.833-46.132 57.827 21.117-2.273 41.584-8.122 60.426-16.243-14.292 20.791-32.161 39.308-52.628 54.253z"></path>
  </symbol>
  <symbol aria-hidden="true" data-prefix="fal" data-icon="user" xmlns="http://www.w3.org/2000/svg" viewBox="0 0 448 512" id="user">
    <path fill="currentColor" d="M313.6 288c-28.7 0-42.5 16-89.6 16-47.1 0-60.8-16-89.6-16C60.2 288 0 348.2 0 422.4V464c0 26.5 21.5 48 48 48h352c26.5 0 48-21.5 48-48v-41.6c0-74.2-60.2-134.4-134.4-134.4zM416 464c0 8.8-7.2 16-16 16H48c-8.8 0-16-7.2-16-16v-41.6C32 365.9 77.9 320 134.4 320c19.6 0 39.1 16 89.6 16 50.4 0 70-16 89.6-16 56.5 0 102.4 45.9 102.4 102.4V464zM224 256c70.7 0 128-57.3 128-128S294.7 0 224 0 96 57.3 96 128s57.3 128 128 128zm0-224c52.9 0 96 43.1 96 96s-43.1 96-96 96-96-43.1-96-96 43.1-96 96-96z"></path>
  </symbol>
  <symbol aria-hidden="true" data-prefix="fab" data-icon="youtube" xmlns="http://www.w3.org/2000/svg" viewBox="0 0 576 512" id="youtube">
    <path fill="currentColor" d="M549.655 124.083c-6.281-23.65-24.787-42.276-48.284-48.597C458.781 64 288 64 288 64S117.22 64 74.629 75.486c-23.497 6.322-42.003 24.947-48.284 48.597-11.412 42.867-11.412 132.305-11.412 132.305s0 89.438 11.412 132.305c6.281 23.65 24.787 41.5 48.284 47.821C117.22 448 288 448 288 448s170.78 0 213.371-11.486c23.497-6.321 42.003-24.171 48.284-47.821 11.412-42.867 11.412-132.305 11.412-132.305s0-89.438-11.412-132.305zm-317.51 213.508V175.185l142.739 81.205-142.739 81.201z"></path>
  </symbol>
  <symbol aria-hidden="true" data-prefix="fab" data-icon="youtube-square" xmlns="http://www.w3.org/2000/svg" shape-rendering="geometricPrecision" text-rendering="geometricPrecision" image-rendering="optimizeQuality" fill-rule="evenodd" clip-rule="evenodd" viewBox="0 0 3333 3333" id="youtube-square">
    <path fill="currentColor" d="M3021 0H313C141 0 0 141 0 312v2708c0 172 141 312 313 312h2708c172 0 313-141 313-312V312c0-172-141-312-313-312zm-441 1294s-18-129-74-185c-71-74-151-75-187-79-261-19-652-19-652-19h-1s-392 0-652 19c-36 4-116 5-187 79-56 56-74 185-74 185s-19 151-19 302v141c0 151 19 302 19 302s18 129 74 185c71 74 164 72 206 80 149 14 634 19 634 19s392-1 653-19c36-4 116-5 187-79 56-56 74-185 74-185s19-151 19-302v-141c0-151-19-302-19-302zm-1107 615v-524l504 263-504 261z"></path>
  </symbol>
  <symbol aria-hidden="true" data-prefix="fal" data-icon="shopping-basket" xmlns="http://www.w3.org/2000/svg" viewBox="0 0 576 512" id="basket">
    <path fill="currentColor" d="M564 192h-76.875L347.893 37.297c-5.91-6.568-16.027-7.101-22.596-1.189s-7.101 16.028-1.189 22.596L444.075 192h-312.15L251.893 58.703c5.912-6.567 5.379-16.685-1.189-22.596-6.569-5.912-16.686-5.38-22.596 1.189L88.875 192H12c-6.627 0-12 5.373-12 12v8c0 6.627 5.373 12 12 12h16.444L58.25 438.603C61.546 462.334 81.836 480 105.794 480h364.412c23.958 0 44.248-17.666 47.544-41.397L547.556 224H564c6.627 0 12-5.373 12-12v-8c0-6.627-5.373-12-12-12zm-77.946 242.201c-1.093 7.867-7.906 13.799-15.848 13.799H105.794c-7.942 0-14.755-5.932-15.848-13.799L60.752 224h454.497l-29.195 210.201zM304 280v112c0 8.837-7.163 16-16 16-8.836 0-16-7.163-16-16V280c0-8.837 7.164-16 16-16 8.837 0 16 7.163 16 16zm112 0v112c0 8.837-7.163 16-16 16s-16-7.163-16-16V280c0-8.837 7.163-16 16-16s16 7.163 16 16zm-224 0v112c0 8.837-7.164 16-16 16s-16-7.163-16-16V280c0-8.837 7.164-16 16-16s16 7.163 16 16z"></path>
  </symbol>
  <symbol aria-hidden="true" data-prefix="fal" data-icon="book-reader" xmlns="http://www.w3.org/2000/svg" viewBox="0 0 512 512" id="book">
    <path fill="currentColor" d="M459.91 192.02c-.7 0-1.39.02-2.06.05-49.8 2.84-140.51 13-201.84 47.57-61.33-34.57-152.05-44.73-201.84-47.57-.67-.04-1.36-.05-2.06-.05C31.71 192.01 0 206.36 0 242.22v178.05c0 26.69 21.25 48.7 48.34 50.12 34.41 1.81 120.56 9.08 177 37.47 4.68 2.37 9.66 3.5 14.66 3.84v.27h2.27c.09 0 .18.03.26.03h26.94c.09 0 .18-.03.26-.03H272v-.27c5-.34 9.98-1.48 14.66-3.84 56.44-28.39 142.59-35.65 177-37.47 27.09-1.42 48.34-23.44 48.34-50.12V242.22c0-35.86-31.71-50.2-52.09-50.2zM240 479.35c-.09-.04-.18-.02-.28-.07-59.59-29.97-144.43-38.45-189.7-40.84-10.1-.53-18.02-8.51-18.02-18.17V242.22c0-6.05 1.77-10 5.93-13.2 4.47-3.44 10.47-5.01 14.4-5.01 37.01 2.11 129.27 10.58 187.67 43.36v211.98zm240-59.08c0 9.66-7.92 17.64-18.03 18.17-45.27 2.38-130.11 10.86-189.76 40.87-.07.04-.14.02-.22.05V267.37c58.39-32.79 150.66-41.25 187.51-43.35l.39-.01c.2 0 20.09.49 20.09 18.21v178.05zM256 191.99c53.02 0 96-42.98 96-95.99S309.02 0 256 0s-96 42.98-96 95.99 42.98 96 96 96zM256 32c35.29 0 64 28.71 64 64s-28.71 64-64 64-64-28.71-64-64 28.71-64 64-64z"></path>
  </symbol>
  <symbol viewBox="0 0 512 512" xmlns="http://www.w3.org/2000/svg" id="case-study">
    <path d="M462.367 442.244l-50.81-50.81c22.325-39.831 18-90.682-12.968-126.245V105.565c0-13.482-10.969-24.451-24.451-24.451h-59.073v-7.756c0-20.759-16.889-37.649-37.649-37.649h-9.09V26.8c0-14.777-12.023-26.8-26.8-26.8h-39.848c-14.777 0-26.8 12.022-26.8 26.8v8.91h-9.09c-20.759 0-37.649 16.889-37.649 37.649v7.756H69.065c-13.482 0-24.451 10.969-24.451 24.451v381.985c0 13.482 10.969 24.451 24.451 24.451h258.748a7.485 7.485 0 1 0 0-14.97H69.065c-5.228 0-9.481-4.253-9.481-9.481V105.565c0-5.228 4.253-9.481 9.481-9.481h59.073v2.448c0 7.044 5.731 12.776 12.776 12.776h24.482a7.485 7.485 0 1 0 0-14.97h-22.288v-22.98c0-12.505 10.174-22.679 22.679-22.679h111.628c12.505 0 22.679 10.174 22.679 22.679v22.979h-98.379a7.485 7.485 0 1 0 0 14.97h100.573c7.044 0 12.776-5.731 12.776-12.776v-2.448h59.073c5.228 0 9.481 4.253 9.481 9.481v145.371c-35.33-27.871-84.616-31.705-124.097-8.443a7.486 7.486 0 0 0 7.6 12.898c37.376-22.023 84.934-15.95 115.652 14.769 37.136 37.136 37.136 97.561 0 134.698-17.99 17.99-41.908 27.897-67.349 27.897s-49.36-9.907-67.349-27.897c-34.881-34.881-37.169-91.572-5.207-129.061a7.485 7.485 0 1 0-11.392-9.712c-17.925 21.026-27.226 47.864-26.189 75.569 1.042 27.859 12.479 54.064 32.204 73.788 20.817 20.817 48.495 32.282 77.934 32.282 19.207 0 37.662-4.883 53.952-14.056l14.242 14.242v39.638c0 5.228-4.253 9.481-9.481 9.481H363.95a7.485 7.485 0 1 0 0 14.97h10.188c13.482 0 24.451-10.969 24.451-24.451v-24.669l21.571 21.571a17.08 17.08 0 0 0 12.115 5.01c4.387 0 8.776-1.67 12.116-5.01l17.977-17.977a17.023 17.023 0 0 0 5.019-12.116 17.026 17.026 0 0 0-5.02-12.112zM189.847 26.8c0-6.523 5.307-11.83 11.83-11.83h39.848c6.523 0 11.83 5.307 11.83 11.83v8.91h-63.508zm261.935 429.09l-17.976 17.977a2.167 2.167 0 0 1-3.061 0l-48.61-48.61a110.787 110.787 0 0 0 21.03-21.045l48.617 48.617a2.169 2.169 0 0 1 0 3.061z"></path>
    <path d="M284.05 172.559h63.443a7.485 7.485 0 1 0 0-14.97H284.05a7.485 7.485 0 1 0 0 14.97zm-184.96 0h138.479a7.485 7.485 0 1 0 0-14.97H99.09a7.485 7.485 0 1 0 0 14.97zm0 30.817h138.479a7.485 7.485 0 1 0 0-14.97H99.09a7.485 7.485 0 1 0 0 14.97zm87.6 24.805a7.485 7.485 0 0 0-7.485-7.485H99.09a7.485 7.485 0 1 0 0 14.97h80.115a7.485 7.485 0 0 0 7.485-7.485zm97.36-24.805h63.443a7.485 7.485 0 1 0 0-14.97H284.05a7.485 7.485 0 1 0 0 14.97zm-158.764 97.728c-20.073 0-36.404 16.331-36.404 36.404 0 20.074 16.331 36.405 36.404 36.405 20.074 0 36.405-16.331 36.405-36.405 0-20.073-16.331-36.404-36.405-36.404zm0 57.84c-11.819 0-21.434-9.615-21.434-21.435 0-11.819 9.615-21.434 21.434-21.434s21.435 9.615 21.435 21.434-9.615 21.435-21.435 21.435zm0 43.083c-20.073 0-36.404 16.331-36.404 36.405 0 20.073 16.331 36.404 36.404 36.404 20.074 0 36.405-16.331 36.405-36.404 0-20.074-16.331-36.405-36.405-36.405zm0 57.839c-11.819 0-21.434-9.615-21.434-21.434s9.615-21.435 21.434-21.435 21.435 9.616 21.435 21.435-9.615 21.434-21.435 21.434zm61.768-13.949h34.547a7.485 7.485 0 1 0 0-14.97h-34.547a7.485 7.485 0 1 0 0 14.97z"></path>
  </symbol>
  <symbol aria-hidden="true" data-prefix="fal" data-icon="clipboard-list" xmlns="http://www.w3.org/2000/svg" viewBox="0 0 384 512" id="clipboard">
    <path fill="currentColor" d="M280 240H168c-4.4 0-8 3.6-8 8v16c0 4.4 3.6 8 8 8h112c4.4 0 8-3.6 8-8v-16c0-4.4-3.6-8-8-8zm0 96H168c-4.4 0-8 3.6-8 8v16c0 4.4 3.6 8 8 8h112c4.4 0 8-3.6 8-8v-16c0-4.4-3.6-8-8-8zM112 232c-13.3 0-24 10.7-24 24s10.7 24 24 24 24-10.7 24-24-10.7-24-24-24zm0 96c-13.3 0-24 10.7-24 24s10.7 24 24 24 24-10.7 24-24-10.7-24-24-24zM336 64h-88.6c.4-2.6.6-5.3.6-8 0-30.9-25.1-56-56-56s-56 25.1-56 56c0 2.7.2 5.4.6 8H48C21.5 64 0 85.5 0 112v352c0 26.5 21.5 48 48 48h288c26.5 0 48-21.5 48-48V112c0-26.5-21.5-48-48-48zM192 32c13.3 0 24 10.7 24 24s-10.7 24-24 24-24-10.7-24-24 10.7-24 24-24zm160 432c0 8.8-7.2 16-16 16H48c-8.8 0-16-7.2-16-16V112c0-8.8 7.2-16 16-16h48v20c0 6.6 5.4 12 12 12h168c6.6 0 12-5.4 12-12V96h48c8.8 0 16 7.2 16 16v352z"></path>
  </symbol>
  <symbol aria-hidden="true" data-prefix="fab" data-icon="facebook-f" xmlns="http://www.w3.org/2000/svg" viewBox="0 0 320 512" id="facebook">
    <path fill="currentColor" d="M279.14 288l14.22-92.66h-88.91v-60.13c0-25.35 12.42-50.06 52.24-50.06h40.42V6.26S260.43 0 225.36 0c-73.22 0-121.08 44.38-121.08 124.72v70.62H22.89V288h81.39v224h100.17V288z"></path>
  </symbol>
  <symbol viewBox="0 0 16 11" fill="none" xmlns="http://www.w3.org/2000/svg" id="arrow">
    <path d="M.815 5.554h13.5m-3.608-3.261l4 4L10 1.586" stroke="currentColor" stroke-width="2"></path>
    <path d="M10.707 9L14.5 5 10 9.707" stroke="currentColor" stroke-width="2"></path>
  </symbol>
  <symbol viewBox="0 0 20 19" fill="none" xmlns="http://www.w3.org/2000/svg" id="star">
    <path d="M10.333 0l2.238 6.91h7.24l-5.858 4.27 2.238 6.91-5.858-4.27-5.857 4.27 2.237-6.91L.856 6.91h7.24L10.333 0z" fill="currentColor"></path>
  </symbol>
  <symbol viewBox="0 0 32 32" fill="none" xmlns="http://www.w3.org/2000/svg" id="dot">
    <path d="M 16 4 C 9.382813 4 4 9.382813 4 16 C 4 22.617188 9.382813 28 16 28 C 22.617188 28 28 22.617188 28 16 C 28 9.382813 22.617188 4 16 4 Z M 16 6 C 21.535156 6 26 10.464844 26 16 C 26 21.535156 21.535156 26 16 26 C 10.464844 26 6 21.535156 6 16 C 6 10.464844 10.464844 6 16 6 Z M 16 13 C 14.34375 13 13 14.34375 13 16 C 13 17.65625 14.34375 19 16 19 C 17.65625 19 19 17.65625 19 16 C 19 14.34375 17.65625 13 16 13 Z" fill="currentColor"></path>
  </symbol>
  <symbol xmlns="http://www.w3.org/2000/svg" viewBox="0 0 272 92" id="google">
    <path fill="#EA4335" d="M115.75 47.18c0 12.77-9.99 22.18-22.25 22.18s-22.25-9.41-22.25-22.18C71.25 34.32 81.24 25 93.5 25s22.25 9.32 22.25 22.18zm-9.74 0c0-7.98-5.79-13.44-12.51-13.44S80.99 39.2 80.99 47.18c0 7.9 5.79 13.44 12.51 13.44s12.51-5.55 12.51-13.44z"></path>
    <path fill="#FBBC05" d="M163.75 47.18c0 12.77-9.99 22.18-22.25 22.18s-22.25-9.41-22.25-22.18c0-12.85 9.99-22.18 22.25-22.18s22.25 9.32 22.25 22.18zm-9.74 0c0-7.98-5.79-13.44-12.51-13.44s-12.51 5.46-12.51 13.44c0 7.9 5.79 13.44 12.51 13.44s12.51-5.55 12.51-13.44z"></path>
    <path fill="#4285F4" d="M209.75 26.34v39.82c0 16.38-9.66 23.07-21.08 23.07-10.75 0-17.22-7.19-19.66-13.07l8.48-3.53c1.51 3.61 5.21 7.87 11.17 7.87 7.31 0 11.84-4.51 11.84-13v-3.19h-.34c-2.18 2.69-6.38 5.04-11.68 5.04-11.09 0-21.25-9.66-21.25-22.09 0-12.52 10.16-22.26 21.25-22.26 5.29 0 9.49 2.35 11.68 4.96h.34v-3.61h9.25zm-8.56 20.92c0-7.81-5.21-13.52-11.84-13.52-6.72 0-12.35 5.71-12.35 13.52 0 7.73 5.63 13.36 12.35 13.36 6.63 0 11.84-5.63 11.84-13.36z"></path>
    <path fill="#34A853" d="M225 3v65h-9.5V3h9.5z"></path>
    <path fill="#EA4335" d="M262.02 54.48l7.56 5.04c-2.44 3.61-8.32 9.83-18.48 9.83-12.6 0-22.01-9.74-22.01-22.18 0-13.19 9.49-22.18 20.92-22.18 11.51 0 17.14 9.16 18.98 14.11l1.01 2.52-29.65 12.28c2.27 4.45 5.8 6.72 10.75 6.72 4.96 0 8.4-2.44 10.92-6.14zm-23.27-7.98l19.82-8.23c-1.09-2.77-4.37-4.7-8.23-4.7-4.95 0-11.84 4.37-11.59 12.93z"></path>
    <path fill="#4285F4" d="M35.29 41.41V32H67c.31 1.64.47 3.58.47 5.68 0 7.06-1.93 15.79-8.15 22.01-6.05 6.3-13.78 9.66-24.02 9.66C16.32 69.35.36 53.89.36 34.91.36 15.93 16.32.47 35.3.47c10.5 0 17.98 4.12 23.6 9.49l-6.64 6.64c-4.03-3.78-9.49-6.72-16.97-6.72-13.86 0-24.7 11.17-24.7 25.03 0 13.86 10.84 25.03 24.7 25.03 8.99 0 14.11-3.61 17.39-6.89 2.66-2.66 4.41-6.46 5.1-11.65l-22.49.01z"></path>
  </symbol>  
  <symbol aria-hidden="true" data-prefix="fal" data-icon="fax" xmlns="http://www.w3.org/2000/svg" viewBox="0 0 512 512" id="fax">
    <path fill="currentColor" d="M392 304h16a8 8 0 0 0 8-8v-16a8 8 0 0 0-8-8h-16a8 8 0 0 0-8 8v16a8 8 0 0 0 8 8zm0 128h16a8 8 0 0 0 8-8v-16a8 8 0 0 0-8-8h-16a8 8 0 0 0-8 8v16a8 8 0 0 0 8 8zM80 128H48a48 48 0 0 0-48 48v288a48 48 0 0 0 48 48h32a48 48 0 0 0 48-48V176a48 48 0 0 0-48-48zm16 336a16 16 0 0 1-16 16H48a16 16 0 0 1-16-16V176a16 16 0 0 1 16-16h32a16 16 0 0 1 16 16zm296-96h16a8 8 0 0 0 8-8v-16a8 8 0 0 0-8-8h-16a8 8 0 0 0-8 8v16a8 8 0 0 0 8 8zm-128 64h16a8 8 0 0 0 8-8v-16a8 8 0 0 0-8-8h-16a8 8 0 0 0-8 8v16a8 8 0 0 0 8 8zm0-64h16a8 8 0 0 0 8-8v-16a8 8 0 0 0-8-8h-16a8 8 0 0 0-8 8v16a8 8 0 0 0 8 8zm216-205.06v-53.69a32 32 0 0 0-9.38-22.63L393.38 9.38A32 32 0 0 0 370.75 0H208a48 48 0 0 0-48 48v416a48 48 0 0 0 48 48h256a48 48 0 0 0 48-48V208a47.87 47.87 0 0 0-32-45.06zM384 45.25L434.75 96H384zM192 48a16 16 0 0 1 16-16h144v64a32 32 0 0 0 32 32h64v64H192zm288 416a16 16 0 0 1-16 16H208a16 16 0 0 1-16-16V224h288zm-152-32h16a8 8 0 0 0 8-8v-16a8 8 0 0 0-8-8h-16a8 8 0 0 0-8 8v16a8 8 0 0 0 8 8zm0-64h16a8 8 0 0 0 8-8v-16a8 8 0 0 0-8-8h-16a8 8 0 0 0-8 8v16a8 8 0 0 0 8 8zm0-64h16a8 8 0 0 0 8-8v-16a8 8 0 0 0-8-8h-16a8 8 0 0 0-8 8v16a8 8 0 0 0 8 8zm-64 0h16a8 8 0 0 0 8-8v-16a8 8 0 0 0-8-8h-16a8 8 0 0 0-8 8v16a8 8 0 0 0 8 8z"></path>
  </symbol>
  <symbol aria-hidden="true" data-prefix="fal" data-icon="credit-card" xmlns="http://www.w3.org/2000/svg" viewBox="0 0 576 512" id="credit-card">
    <path fill="currentColor" d="M528 32H48C21.5 32 0 53.5 0 80v352c0 26.5 21.5 48 48 48h480c26.5 0 48-21.5 48-48V80c0-26.5-21.5-48-48-48zM48 64h480c8.8 0 16 7.2 16 16v48H32V80c0-8.8 7.2-16 16-16zm480 384H48c-8.8 0-16-7.2-16-16V224h512v208c0 8.8-7.2 16-16 16zm-336-84v8c0 6.6-5.4 12-12 12h-72c-6.6 0-12-5.4-12-12v-8c0-6.6 5.4-12 12-12h72c6.6 0 12 5.4 12 12zm192 0v8c0 6.6-5.4 12-12 12H236c-6.6 0-12-5.4-12-12v-8c0-6.6 5.4-12 12-12h136c6.6 0 12 5.4 12 12z"></path>
  </symbol>
  <symbol aria-hidden="true" data-prefix="fal" data-icon="file-pdf" xmlns="http://www.w3.org/2000/svg" viewBox="0 0 384 512" id="pdf">
    <path fill="currentColor" d="M369.9 97.9L286 14C277 5 264.8-.1 252.1-.1H48C21.5 0 0 21.5 0 48v416c0 26.5 21.5 48 48 48h288c26.5 0 48-21.5 48-48V131.9c0-12.7-5.1-25-14.1-34zm-22.6 22.7c2.1 2.1 3.5 4.6 4.2 7.4H256V32.5c2.8.7 5.3 2.1 7.4 4.2l83.9 83.9zM336 480H48c-8.8 0-16-7.2-16-16V48c0-8.8 7.2-16 16-16h176v104c0 13.3 10.7 24 24 24h104v304c0 8.8-7.2 16-16 16zm-22-171.2c-13.5-13.3-55-9.2-73.7-6.7-21.2-12.8-35.2-30.4-45.1-56.6 4.3-18 12-47.2 6.4-64.9-4.4-28.1-39.7-24.7-44.6-6.8-5 18.3-.3 44.4 8.4 77.8-11.9 28.4-29.7 66.9-42.1 88.6-20.8 10.7-54.1 29.3-58.8 52.4-3.5 16.8 22.9 39.4 53.1 6.4 9.1-9.9 19.3-24.8 31.3-45.5 26.7-8.8 56.1-19.8 82-24 21.9 12 47.6 19.9 64.6 19.9 27.7.1 28.9-30.2 18.5-40.6zm-229.2 89c5.9-15.9 28.6-34.4 35.5-40.8-22.1 35.3-35.5 41.5-35.5 40.8zM180 175.5c8.7 0 7.8 37.5 2.1 47.6-5.2-16.3-5-47.6-2.1-47.6zm-28.4 159.3c11.3-19.8 21-43.2 28.8-63.7 9.7 17.7 22.1 31.7 35.1 41.5-24.3 4.7-45.4 15.1-63.9 22.2zm153.4-5.9s-5.8 7-43.5-9.1c41-3 47.7 6.4 43.5 9.1z"></path>
  </symbol>
  <symbol aria-hidden="true" data-prefix="fal" data-icon="poll-h" xmlns="http://www.w3.org/2000/svg" viewBox="0 0 448 512" id="list">
    <path fill="currentColor" d="M448 432V80c0-26.5-21.5-48-48-48H48C21.5 32 0 53.5 0 80v352c0 26.5 21.5 48 48 48h352c26.5 0 48-21.5 48-48zM48 448c-8.82 0-16-7.18-16-16V80c0-8.82 7.18-16 16-16h352c8.82 0 16 7.18 16 16v352c0 8.82-7.18 16-16 16H48zm208-280v-16c0-4.42-3.58-8-8-8H104c-4.42 0-8 3.58-8 8v16c0 4.42 3.58 8 8 8h144c4.42 0 8-3.58 8-8zm96 96v-16c0-4.42-3.58-8-8-8H104c-4.42 0-8 3.58-8 8v16c0 4.42 3.58 8 8 8h240c4.42 0 8-3.58 8-8zm-160 96v-16c0-4.42-3.58-8-8-8h-80c-4.42 0-8 3.58-8 8v16c0 4.42 3.58 8 8 8h80c4.42 0 8-3.58 8-8z"></path>
  </symbol>
  <symbol aria-hidden="true" data-prefix="fal" data-icon="recycle" xmlns="http://www.w3.org/2000/svg" viewBox="0 0 512 512" id="recycle">
    <path fill="currentColor" d="M201.728 62.049l-43.385 69.459c-3.511 5.622-10.916 7.332-16.537 3.819l-6.781-4.237c-5.619-3.511-7.329-10.912-3.819-16.533l43.387-69.48c37.575-60.12 125.263-60.084 162.816 0l46.217 74.015 12.037-52.14c1.491-6.458 7.934-10.484 14.392-8.993l7.794 1.799c6.458 1.491 10.484 7.934 8.993 14.392l-21.633 93.702c-1.491 6.458-7.934 10.484-14.392 8.993l-93.702-21.633c-6.458-1.491-10.484-7.934-8.993-14.392l1.799-7.794c1.491-6.458 7.934-10.484 14.392-8.993l52.202 12.052-46.251-74.047c-25.002-40.006-83.467-40.099-108.536.011zm295.56 239.071l-52.939-84.78c-3.511-5.623-10.916-7.334-16.538-3.821l-6.767 4.228c-5.62 3.512-7.329 10.913-3.819 16.534l52.966 84.798c26.605 42.568-4.054 97.92-54.272 97.92H310.627l37.858-37.858c4.686-4.686 4.686-12.284 0-16.97l-5.656-5.656c-4.686-4.686-12.284-4.686-16.97 0l-68 68c-4.686 4.686-4.686 12.284 0 16.971l68 68c4.686 4.686 12.284 4.686 16.97 0l5.656-5.657c4.686-4.686 4.686-12.284 0-16.971L310.627 448H415.88c75.274 0 121.335-82.997 81.408-146.88zM41.813 318.069l55.803-89.339 12.044 52.166c1.491 6.458 7.934 10.484 14.392 8.993l7.794-1.799c6.458-1.491 10.484-7.934 8.993-14.392l-21.633-93.702c-1.491-6.458-7.934-10.484-14.392-8.993l-93.702 21.633c-6.458 1.491-10.484 7.934-8.993 14.392l1.799 7.794c1.491 6.458 7.934 10.484 14.392 8.993l52.193-12.05-55.796 89.355C-25.188 364.952 20.781 448 96.115 448H196c6.627 0 12-5.373 12-12v-8c0-6.627-5.373-12-12-12H96.078c-50.199 0-80.887-55.335-54.265-97.931z"></path>
  </symbol>
  <symbol aria-hidden="true" data-prefix="fal" data-icon="handshake" xmlns="http://www.w3.org/2000/svg" viewBox="0 0 640 512" id="handshake">
    <path fill="currentColor" d="M16 319.8c8.8 0 16-7.2 16-16s-7.2-16-16-16-16 7.2-16 16c0 8.9 7.2 16 16 16zM632 128l-113.5.2-51.2-49.9c-9.1-9.1-21.1-14.1-33.9-14.1h-101c-10.4 0-20.1 3.9-28.3 10-8.4-6.5-18.7-10.3-29.3-10.3h-69.5c-12.7 0-24.9 5.1-33.9 14.1l-50 50H8c-4.4 0-8 3.6-8 8v16c0 4.4 3.6 8 8 8h56v191.9H8c-4.4 0-8 3.6-8 8v16c0 4.4 3.6 8 8 8h56c17.6 0 31.8-14.2 31.9-31.7h33.2l81.5 78c29.8 24.1 71.8 23.4 101-.2l7.2 6.2c9.6 7.8 21.3 11.9 33.5 11.9 16 0 31.1-7 41.4-19.6l21.9-26.9c16.4 8.9 42.9 9 60-12l9.5-11.7c6.2-7.6 9.6-16.6 10.5-25.7h48.6c.1 17.5 14.4 31.7 31.9 31.7h56c4.4 0 8-3.6 8-8v-16c0-4.4-3.6-8-8-8h-56V160.2l56-.2c4.4 0 8-3.6 8-8v-16c-.1-4.5-3.7-8-8.1-8zM460.2 357.6l-9.5 11.7c-5.4 6.6-15.4 8.1-22.5 2.3l-17.8-14.4-41.5 51c-7.5 9.3-21 10.2-29.4 3.4l-30.6-26.1-10.4 12.8c-16.7 20.5-47 23.7-66.6 7.9L142 320.1H96V159.9h38.6l59.3-59.3c3-3 7.1-4.7 11.3-4.7h69.5c.9 2.2.3.7 1.1 2.9l-59 54.2c-28.2 25.9-29.6 69.2-4.2 96.9 14.3 15.6 58.6 39.3 96.9 4.2l22.8-20.9 125.6 101.9c6.8 5.6 7.8 15.7 2.3 22.5zm83.8-37.5h-57.2c-2.5-3.5-5.3-6.9-8.8-9.8l-121.9-99 28.4-26.1c6.5-6 7-16.1 1-22.6s-16.1-6.9-22.6-1l-75.1 68.8c-14.4 13.1-38.6 12-51.7-2.2-13.6-14.8-12.7-38 2.2-51.7l83.1-76.2c3-2.7 6.8-4.2 10.8-4.2h101c4.3 0 8.3 1.7 11.4 4.8l60.7 59.1H544v160.1zm80-32.2c-8.8 0-16 7.2-16 16s7.2 16 16 16 16-7.2 16-16c0-8.9-7.2-16-16-16z"></path>
  </symbol>
  <symbol aria-hidden="true" data-prefix="fal" data-icon="clipboard-list-check" xmlns="http://www.w3.org/2000/svg" viewBox="0 0 384 512" id="clipboard-tick">
    <path fill="currentColor" d="M336 64h-88.6c.4-2.6.6-5.3.6-8 0-30.9-25.1-56-56-56s-56 25.1-56 56c0 2.7.2 5.4.6 8H48C21.5 64 0 85.5 0 112v352c0 26.5 21.5 48 48 48h288c26.5 0 48-21.5 48-48V112c0-26.5-21.5-48-48-48zM192 32c13.3 0 24 10.7 24 24s-10.7 24-24 24-24-10.7-24-24 10.7-24 24-24zm160 432c0 8.8-7.2 16-16 16H48c-8.8 0-16-7.2-16-16V112c0-8.8 7.2-16 16-16h48v20c0 6.6 5.4 12 12 12h168c6.6 0 12-5.4 12-12V96h48c8.8 0 16 7.2 16 16v352zM112 328c-13.3 0-24 10.7-24 24s10.7 24 24 24 24-10.7 24-24-10.7-24-24-24zm168 8H168c-4.4 0-8 3.6-8 8v16c0 4.4 3.6 8 8 8h112c4.4 0 8-3.6 8-8v-16c0-4.4-3.6-8-8-8zm-153.8-65.6l64.2-63.6c2.1-2.1 2.1-5.5 0-7.6l-12.6-12.7c-2.1-2.1-5.5-2.1-7.6 0l-47.6 47.2-20.6-20.9c-2.1-2.1-5.5-2.1-7.6 0l-12.7 12.6c-2.1 2.1-2.1 5.5 0 7.6l37.1 37.4c1.9 2.1 5.3 2.1 7.4 0zM280 240h-77.6l-32.3 32H280c4.4 0 8-3.6 8-8v-16c0-4.4-3.6-8-8-8z"></path>
  </symbol>
  <symbol aria-hidden="true" data-prefix="fab" data-icon="facebook-square" xmlns="http://www.w3.org/2000/svg" viewBox="0 0 448 512" id="facebook-square">
    <path fill="currentColor" d="M400 32H48A48 48 0 0 0 0 80v352a48 48 0 0 0 48 48h137.25V327.69h-63V256h63v-54.64c0-62.15 37-96.48 93.67-96.48 27.14 0 55.52 4.84 55.52 4.84v61h-31.27c-30.81 0-40.42 19.12-40.42 38.73V256h68.78l-11 71.69h-57.78V480H400a48 48 0 0 0 48-48V80a48 48 0 0 0-48-48z"></path>
  </symbol>
  <symbol aria-hidden="true" data-prefix="fab" data-icon="instagram-square" xmlns="http://www.w3.org/2000/svg" viewBox="0 0 448 512" id="instagram-square">
    <path fill="currentColor" d="M224,202.66A53.34,53.34,0,1,0,277.36,256,53.38,53.38,0,0,0,224,202.66Zm124.71-41a54,54,0,0,0-30.41-30.41c-21-8.29-71-6.43-94.3-6.43s-73.25-1.93-94.31,6.43a54,54,0,0,0-30.41,30.41c-8.28,21-6.43,71.05-6.43,94.33S91,329.26,99.32,350.33a54,54,0,0,0,30.41,30.41c21,8.29,71,6.43,94.31,6.43s73.24,1.93,94.3-6.43a54,54,0,0,0,30.41-30.41c8.35-21,6.43-71.05,6.43-94.33S357.1,182.74,348.75,161.67ZM224,338a82,82,0,1,1,82-82A81.9,81.9,0,0,1,224,338Zm85.38-148.3a19.14,19.14,0,1,1,19.13-19.14A19.1,19.1,0,0,1,309.42,189.74ZM400,32H48A48,48,0,0,0,0,80V432a48,48,0,0,0,48,48H400a48,48,0,0,0,48-48V80A48,48,0,0,0,400,32ZM382.88,322c-1.29,25.63-7.14,48.34-25.85,67s-41.4,24.63-67,25.85c-26.41,1.49-105.59,1.49-132,0-25.63-1.29-48.26-7.15-67-25.85s-24.63-41.42-25.85-67c-1.49-26.42-1.49-105.61,0-132,1.29-25.63,7.07-48.34,25.85-67s41.47-24.56,67-25.78c26.41-1.49,105.59-1.49,132,0,25.63,1.29,48.33,7.15,67,25.85s24.63,41.42,25.85,67.05C384.37,216.44,384.37,295.56,382.88,322Z"></path>
  </symbol>
  <symbol aria-hidden="true" data-prefix="fab" data-icon="twitter-square" xmlns="http://www.w3.org/2000/svg" viewBox="0 0 448 512" id="twitter-square">
    <path fill="currentColor" d="M400 32H48C21.5 32 0 53.5 0 80v352c0 26.5 21.5 48 48 48h352c26.5 0 48-21.5 48-48V80c0-26.5-21.5-48-48-48zm-48.9 158.8c.2 2.8.2 5.7.2 8.5 0 86.7-66 186.6-186.6 186.6-37.2 0-71.7-10.8-100.7-29.4 5.3.6 10.4.8 15.8.8 30.7 0 58.9-10.4 81.4-28-28.8-.6-53-19.5-61.3-45.5 10.1 1.5 19.2 1.5 29.6-1.2-30-6.1-52.5-32.5-52.5-64.4v-.8c8.7 4.9 18.9 7.9 29.6 8.3a65.447 65.447 0 0 1-29.2-54.6c0-12.2 3.2-23.4 8.9-33.1 32.3 39.8 80.8 65.8 135.2 68.6-9.3-44.5 24-80.6 64-80.6 18.9 0 35.9 7.9 47.9 20.7 14.8-2.8 29-8.3 41.6-15.8-4.9 15.2-15.2 28-28.8 36.1 13.2-1.4 26-5.1 37.8-10.2-8.9 13.1-20.1 24.7-32.9 34z"></path>
  </symbol>

  <symbol aria-hidden="true" data-prefix="fab" data-icon="linkedin" xmlns="http://www.w3.org/2000/svg" viewBox="0 0 448 512" id="linkedin-square">
    <path fill="currentColor" d="M416 32H31.9C14.3 32 0 46.5 0 64.3v383.4C0 465.5 14.3 480 31.9 480H416c17.6 0 32-14.5 32-32.3V64.3c0-17.8-14.4-32.3-32-32.3zM135.4 416H69V202.2h66.5V416zm-33.2-243c-21.3 0-38.5-17.3-38.5-38.5S80.9 96 102.2 96c21.2 0 38.5 17.3 38.5 38.5 0 21.3-17.2 38.5-38.5 38.5zm282.1 243h-66.4V312c0-24.8-.5-56.7-34.5-56.7-34.6 0-39.9 27-39.9 54.9V416h-66.4V202.2h63.7v29.2h.9c8.9-16.8 30.6-34.5 62.9-34.5 67.2 0 79.7 44.3 79.7 101.9V416z"></path>
  </symbol>
  <symbol aria-hidden="true" data-prefix="fas" data-icon="building" xmlns="http://www.w3.org/2000/svg" viewBox="0 0 448 512" id="office">
    <path fill="currentColor" d="M436 480h-20V24c0-13.255-10.745-24-24-24H56C42.745 0 32 10.745 32 24v456H12c-6.627 0-12 5.373-12 12v20h448v-20c0-6.627-5.373-12-12-12zM128 76c0-6.627 5.373-12 12-12h40c6.627 0 12 5.373 12 12v40c0 6.627-5.373 12-12 12h-40c-6.627 0-12-5.373-12-12V76zm0 96c0-6.627 5.373-12 12-12h40c6.627 0 12 5.373 12 12v40c0 6.627-5.373 12-12 12h-40c-6.627 0-12-5.373-12-12v-40zm52 148h-40c-6.627 0-12-5.373-12-12v-40c0-6.627 5.373-12 12-12h40c6.627 0 12 5.373 12 12v40c0 6.627-5.373 12-12 12zm76 160h-64v-84c0-6.627 5.373-12 12-12h40c6.627 0 12 5.373 12 12v84zm64-172c0 6.627-5.373 12-12 12h-40c-6.627 0-12-5.373-12-12v-40c0-6.627 5.373-12 12-12h40c6.627 0 12 5.373 12 12v40zm0-96c0 6.627-5.373 12-12 12h-40c-6.627 0-12-5.373-12-12v-40c0-6.627 5.373-12 12-12h40c6.627 0 12 5.373 12 12v40zm0-96c0 6.627-5.373 12-12 12h-40c-6.627 0-12-5.373-12-12V76c0-6.627 5.373-12 12-12h40c6.627 0 12 5.373 12 12v40z"></path>
  </symbol>
  <symbol aria-hidden="true" data-prefix="fas" data-icon="phone-alt" xmlns="http://www.w3.org/2000/svg" viewBox="0 0 512 512" id="phone-alt">
    <path fill="currentColor" d="M497.39 361.8l-112-48a24 24 0 0 0-28 6.9l-49.6 60.6A370.66 370.66 0 0 1 130.6 204.11l60.6-49.6a23.94 23.94 0 0 0 6.9-28l-48-112A24.16 24.16 0 0 0 122.6.61l-104 24A24 24 0 0 0 0 48c0 256.5 207.9 464 464 464a24 24 0 0 0 23.4-18.6l24-104a24.29 24.29 0 0 0-14.01-27.6z"></path>
  </symbol>
  <symbol aria-hidden="true" data-prefix="fas" data-icon="envelope" xmlns="http://www.w3.org/2000/svg" viewBox="0 0 512 512" id="mail-alt">
    <path fill="currentColor" d="M502.3 190.8c3.9-3.1 9.7-.2 9.7 4.7V400c0 26.5-21.5 48-48 48H48c-26.5 0-48-21.5-48-48V195.6c0-5 5.7-7.8 9.7-4.7 22.4 17.4 52.1 39.5 154.1 113.6 21.1 15.4 56.7 47.8 92.2 47.6 35.7.3 72-32.8 92.3-47.6 102-74.1 131.6-96.3 154-113.7zM256 320c23.2.4 56.6-29.2 73.4-41.4 132.7-96.3 142.8-104.7 173.4-128.7 5.8-4.5 9.2-11.5 9.2-18.9v-19c0-26.5-21.5-48-48-48H48C21.5 64 0 85.5 0 112v19c0 7.4 3.4 14.3 9.2 18.9 30.6 23.9 40.7 32.4 173.4 128.7 16.8 12.2 50.2 41.8 73.4 41.4z"></path>
  </symbol>
</svg>  