<svg id="Layer_1" data-name="Layer 1" xmlns="http://www.w3.org/2000/svg" viewBox="0 0 595.77 95.25"><defs><style>.cls-1{fill:#4685a8;}.cls-2{fill:#35608f;}.cls-3{fill:#828282;}.cls-4{fill:#ff9a00;}</style></defs><title>Artemis-TelecomsArtboard 1</title><path class="cls-1" d="M144.38,34.14c-.1-6.83-1.22-7.54-12.23-7.54-10.8,0-12.33.92-12.33,7.54,0,4.28.81,6.22,3,6.93,1.23.51,1.23.51,9.79.92,9.07.41,9.07.41,10.9.71,6.32,1.12,9.28,5.2,9.28,13.25,0,4.79-1.33,8.56-3.77,10.7C146,69.1,141.63,70,132.15,70c-8.66,0-12.64-.81-15.9-3.26-2.55-1.93-4-5.4-4-9.88,0-.61,0-1.73.1-2.75h7.13a21,21,0,0,0-.1,2.24c0,2.75.72,5,2,6.32,1.22,1.12,4.69,1.73,10.5,1.73,11.11,0,13.65-1.63,13.65-8.66,0-5.91-1.42-7.44-6.82-7.44-7-.1-15.5-.82-18.25-1.53-5.6-1.33-7.74-4.79-7.74-12.44,0-10.59,4-13.35,19.67-13.35,10.39,0,15.28,1.53,17.53,5.3,1,1.84,1.32,3.47,1.32,7.85Z"/><path class="cls-1" d="M200.94,89.68H194V63.49l-.2-.1A7.66,7.66,0,0,1,189.53,68a27.48,27.48,0,0,1-11.31,2c-13.76,0-18.35-6.11-18.35-24.66,0-10.9,1.53-16.81,5.2-20.28,2.75-2.65,7.64-4.08,13.55-4.08,8.46,0,12.74,1.84,15.6,6.73l.2-.1L194,21.71h6.93ZM167.11,45.86c0,15.19,2.24,18.24,13,18.24s13.66-3.67,13.66-17.63c0-9.27-.92-14.47-3.06-16.81-1.63-1.74-5.5-2.75-10.7-2.75C169.35,26.91,167.11,30.17,167.11,45.86Z"/><path class="cls-1" d="M250,69.3H243l.51-6.22-.21-.2C240.9,67.77,235.8,70,227.55,70c-11.62,0-16.41-4.89-16.41-16.61V21.71h6.93V53.4c0,8.56,2.14,10.7,10.6,10.7C239.57,64.1,243,60.54,243,49V21.71H250Z"/><path class="cls-1" d="M262.2,35.06C262.4,23.64,266,21,281.15,21c15.39,0,19.77,3.78,19.77,16.92V69.3H294l.51-5.09-.1-.11c-2.95,4.49-6.93,5.91-16.2,5.91-13.25,0-17.94-3.77-17.94-14.47,0-5.5,1.73-10.39,4.38-12.33s7.24-2.85,13.86-2.85c5.1,0,9.18.61,12,1.73a5.26,5.26,0,0,1,3.26,3.16l.2-.1V39.44c0-11.11-1.93-13-12.43-13-9.58,0-12.43,1.63-12.43,7.13v1.53Zm5.3,19.36c0,7.95,2.14,9.68,12,9.68,6.22,0,10.6-.91,12.74-2.75,1.43-1.12,2-3.06,2-6,0-7.24-3.06-9.38-13.45-9.38C269.74,46,267.5,47.39,267.5,54.42Z"/><path class="cls-1" d="M318.25,21.71l-.71,5.5.2.1c3-4.89,6.73-6.72,13.56-6.72,9.07,0,13.14,4.28,13.14,13.55V37.4h-6.82V33.53c0-5-2.25-7-7.85-7-5,0-8.66,1.73-10.19,4.89-.92,1.94-1.33,4.69-1.33,9.38V69.3h-6.93V21.71Z"/><path class="cls-1" d="M390.31,54.93a17.35,17.35,0,0,1,.1,1.94c0,9.78-5.3,13.14-20.49,13.14-17.22,0-21.2-4.58-21.2-24.66,0-19.67,4.08-24.36,21.41-24.36,11.72,0,16.4,2.25,18.75,9.07,1.12,3.37,1.43,6.12,1.43,16.72H356.06c.1,15.08,1.84,17.32,13.76,17.32s13.45-1,13.35-9.17Zm-7.14-13.55c-.1-6.63-.2-7.75-1-10.09-1.22-3.47-4.28-4.69-11.92-4.69-11.93,0-14.17,2.34-14.07,14.78Z"/><path class="cls-2" d="M436.27,25.68C433.72,22.73,428.52,21,422.1,21c-8.66,0-13,1.94-15.69,6.83l-.1-.1.3-6h-6.93V77.56h6.93V63.7h.21c2.75,4.58,6.93,6.31,15.59,6.31,13.66,0,18.24-6,18.24-23.84C440.65,35.57,439.33,29.25,436.27,25.68ZM420.57,64.1c-11.21,0-13.86-3.56-13.86-18.34,0-9,1.12-14.47,3.47-16.51,1.83-1.63,4.89-2.34,9.88-2.34,11.22,0,13.36,3.05,13.36,19C433.42,60.74,431.07,64.1,420.57,64.1Zm-20.89,19v6.55h6.93V83.13Z"/><path class="cls-2" d="M490.79,45.66c0,20.28-3.56,24.35-21.09,24.35s-21-4.07-21-24.86c0-20,3.66-24.16,21.09-24.16S490.79,25.07,490.79,45.66ZM458,30.06c-1.43,2.35-2,6.63-2,15.19,0,17.12,1.22,18.85,13.76,18.85s13.86-1.83,13.86-18.54c0-16.92-1.33-18.65-13.76-18.65C462.77,26.91,459.41,27.82,458,30.06Z"/><path class="cls-2" d="M506.9,9.17H500V1.33h6.93Zm0,60.13H500V21.71h6.93Z"/><path class="cls-2" d="M524.43,21.71l-.1,6.52.1.1c2.24-5.2,6.93-7.34,15.9-7.34,7.84,0,13,2,15.49,6.12,1.22,2,1.63,4.69,1.63,11.21v31h-6.93V38.93c0-5.09-.21-6.52-1.12-8.36-1.23-2.65-4.18-3.66-10.09-3.66-10.5,0-14.58,3.87-14.58,13.75V69.3H517.5V21.71Z"/><path class="cls-2" d="M593.94,27.52H575.59V56.66c0,5.92,1.33,7.44,6.62,7.44,5.81,0,7.14-1.63,7.14-9.07,0-.71,0-1.32-.1-2.54h6.42c.1,1.42.1,2.85.1,3.56,0,9.79-4.08,14-13.66,14-7.33,0-11.21-1.93-12.74-6.11-.61-1.73-.71-3-.71-7.24V27.52H562V21.71h6.62V10.29h6.93V21.71h18.35Z"/><path class="cls-3" d="M229,81.79a7.45,7.45,0,0,0-6.15-3,7.42,7.42,0,1,0,.1,14.83,7.74,7.74,0,0,0,6-2.86l1.37,1a9.24,9.24,0,0,1-7.54,3.42c-5.77,0-9.3-4.06-9.3-9.14s3.94-9,9.3-9a8.91,8.91,0,0,1,7.54,3.63Z"/><path class="cls-3" d="M238.84,77.56h1.73V84.8h8.8V77.56h1.73V94.82h-1.73V86.48h-8.8v8.34h-1.73Z"/><path class="cls-3" d="M267.37,77.56l8.05,17.26h-1.85l-2.71-5.67h-7.45l-2.7,5.67h-1.92L267,77.56Zm-.21,3.65-3,6.25h5.91Z"/><path class="cls-3" d="M283.24,77.56h4a12.54,12.54,0,0,1,4,.44,4.26,4.26,0,0,1,2.83,4.15,4.17,4.17,0,0,1-.5,2.14c-.89,1.8-2.62,2.5-5.48,2.5l6.22,8h-2.13l-6.2-8h-1v8h-1.73ZM285,79.24v5.87l2.86,0a5.45,5.45,0,0,0,3.39-.74,2.94,2.94,0,0,0,1-2.24c0-1.68-1.15-2.91-3.75-2.91Z"/><path class="cls-3" d="M301.22,79.24V77.56h9.47v1.68h-3.85V94.82h-1.73V79.24Z"/><path class="cls-3" d="M318.24,77.56h9.85v1.68H320v5.41h8.12v1.68H320v6.81h8.12v1.68h-9.85Z"/><path class="cls-3" d="M336.25,77.56h4a12.65,12.65,0,0,1,4,.44,4.27,4.27,0,0,1,2.83,4.15,4.17,4.17,0,0,1-.5,2.14c-.89,1.8-2.62,2.5-5.48,2.5l6.22,8h-2.14l-6.2-8h-1v8h-1.73ZM338,79.24v5.87l2.86,0a5.45,5.45,0,0,0,3.39-.74,2.94,2.94,0,0,0,1-2.24c0-1.68-1.15-2.91-3.75-2.91Z"/><path class="cls-3" d="M355.82,77.56h9.85v1.68h-8.13v5.41h8.13v1.68h-8.13v6.81h8.13v1.68h-9.85Z"/><path class="cls-3" d="M373.72,77.56H378a13.72,13.72,0,0,1,5.36.8c3.1,1.25,5,4.22,5,8,0,4.93-3,8.44-8.53,8.44h-6ZM378,93.14c3.27,0,5.43-.29,7-2.17a7,7,0,0,0,1.52-4.56A7.36,7.36,0,0,0,385,81.84c-1.63-2.14-4.08-2.6-7.83-2.6h-1.75v13.9Z"/><path class="cls-3" d="M426.87,81c-.93-1.22-1.75-2.11-3.17-2.11a2.19,2.19,0,0,0-2.33,2.18,3.47,3.47,0,0,0,1.54,2.67c3.24,2.41,5.62,4.06,5.62,6.85a4.75,4.75,0,0,1-4.85,4.64c-2.38,0-3.94-1.32-5.22-3.65l1.47-.89c1,1.9,2.28,2.86,3.6,2.86a3.05,3.05,0,0,0,3.2-2.93c0-1.9-1.78-3-5.7-6.16a4.54,4.54,0,0,1-1.46-3.31,4,4,0,0,1,4.18-4c2.12,0,3.39,1.27,4.52,2.81Z"/><path class="cls-3" d="M447,77.56h1.73V88.79c0,4.06-2.18,6.46-5.72,6.46s-5.71-2.4-5.71-6.46V77.56H439v11a5.29,5.29,0,0,0,.91,3.68,4.14,4.14,0,0,0,6.15,0,5.29,5.29,0,0,0,.91-3.68Z"/><path class="cls-3" d="M458.06,77.56h4a12.54,12.54,0,0,1,4,.44,4.27,4.27,0,0,1,2.84,4.15,4.17,4.17,0,0,1-.5,2.14c-.89,1.8-2.62,2.5-5.48,2.5l6.22,8H467l-6.2-8h-1v8h-1.73Zm1.73,1.68v5.87l2.86,0a5.4,5.4,0,0,0,3.38-.74,2.92,2.92,0,0,0,1-2.24c0-1.68-1.16-2.91-3.75-2.91Z"/><path class="cls-3" d="M475.32,77.56h1.87l5.72,13.34,5.82-13.34h1.87l-7.5,17.26h-.38Z"/><path class="cls-3" d="M498.51,77.56h9.86v1.68h-8.13v5.41h8.13v1.68h-8.13v6.81h8.13v1.68h-9.86Z"/><path class="cls-3" d="M520.58,86.57l-5.55-9h2l4.43,7.12,4.35-7.12h2l-5.48,9v8.25h-1.73Z"/><path class="cls-3" d="M553.05,86.19a9.1,9.1,0,1,1-9.22-9.06A9,9,0,0,1,553.05,86.19Zm-16.38.07a7.29,7.29,0,1,0,14.58-.09,7.29,7.29,0,1,0-14.58.09Z"/><path class="cls-3" d="M561.59,77.56h4a12.54,12.54,0,0,1,4,.44,4.27,4.27,0,0,1,2.84,4.15,4.08,4.08,0,0,1-.51,2.14c-.89,1.8-2.62,2.5-5.48,2.5l6.23,8h-2.14l-6.2-8h-1v8h-1.73Zm1.73,1.68v5.87l2.86,0a5.43,5.43,0,0,0,3.39-.74,2.92,2.92,0,0,0,1-2.24c0-1.68-1.16-2.91-3.75-2.91Z"/><path class="cls-3" d="M587.72,81c-.93-1.22-1.75-2.11-3.17-2.11a2.19,2.19,0,0,0-2.33,2.18,3.47,3.47,0,0,0,1.54,2.67c3.24,2.41,5.62,4.06,5.62,6.85a4.75,4.75,0,0,1-4.85,4.64c-2.38,0-3.95-1.32-5.22-3.65l1.47-.89c1,1.9,2.28,2.86,3.6,2.86a3.06,3.06,0,0,0,3.2-2.93c0-1.9-1.78-3-5.7-6.16a4.54,4.54,0,0,1-1.46-3.31,4,4,0,0,1,4.18-4c2.11,0,3.39,1.27,4.52,2.81Z"/><rect class="cls-2" x="60.96" y="35.9" width="28.98" height="54.19"/><rect class="cls-2" width="28.98" height="54.19"/><rect class="cls-2" x="48.35" y="-12.61" width="28.98" height="54.19" transform="translate(48.35 77.33) rotate(-90)"/><rect class="cls-2" x="12.61" y="48.51" width="28.98" height="54.19" transform="translate(-48.51 102.7) rotate(-90)"/><circle class="cls-4" cx="44.97" cy="45.05" r="9.22"/></svg>