<svg id="svg" version="1.1" xmlns="http://www.w3.org/2000/svg" xmlns:xlink="http://www.w3.org/1999/xlink" width="400" height="114.27189163038219" viewBox="0, 0, 400,114.27189163038219"><g id="svgg"><path id="path0" d="M178.667 20.917 L 178.667 22.000 180.917 22.000 L 183.167 22.000 183.167 26.750 L 183.167 31.500 184.167 31.500 L 185.167 31.500 185.167 26.750 L 185.167 22.000 187.417 22.000 L 189.667 22.000 189.667 20.917 L 189.667 19.833 184.167 19.833 L 178.667 19.833 178.667 20.917 M194.500 25.667 L 194.500 31.500 195.500 31.500 L 196.500 31.500 196.500 29.083 L 196.500 26.667 200.083 26.667 L 203.667 26.667 203.667 29.083 L 203.667 31.500 204.667 31.500 L 205.667 31.500 205.667 25.667 L 205.667 19.833 204.667 19.833 L 203.667 19.833 203.667 22.167 L 203.667 24.500 200.083 24.500 L 196.500 24.500 196.500 22.167 L 196.500 19.833 195.500 19.833 L 194.500 19.833 194.500 25.667 M210.333 25.667 L 210.333 31.500 215.417 31.500 L 220.500 31.500 220.500 30.417 L 220.500 29.333 216.500 29.333 L 212.500 29.333 212.500 28.000 L 212.500 26.667 215.417 26.667 L 218.333 26.667 218.333 25.583 L 218.333 24.500 215.417 24.500 L 212.500 24.500 212.500 23.250 L 212.500 22.000 216.500 22.000 L 220.500 22.000 220.500 20.917 L 220.500 19.833 215.417 19.833 L 210.333 19.833 210.333 25.667 M65.667 58.250 L 65.667 67.500 67.667 67.500 L 69.667 67.500 69.667 63.667 L 69.667 59.833 76.833 59.833 L 84.000 59.833 84.000 63.667 L 84.000 67.500 86.083 67.500 L 88.167 67.500 88.167 58.250 L 88.167 49.000 86.083 49.000 L 84.000 49.000 84.000 52.750 L 84.000 56.500 76.833 56.500 L 69.667 56.500 69.667 52.750 L 69.667 49.000 67.667 49.000 L 65.667 49.000 65.667 58.250 M95.000 58.250 L 95.000 67.500 105.167 67.500 L 115.333 67.500 115.333 65.833 L 115.333 64.167 107.250 64.167 L 99.167 64.167 99.167 62.000 L 99.167 59.833 105.000 59.833 L 110.833 59.833 110.833 58.167 L 110.833 56.500 105.000 56.500 L 99.167 56.500 99.167 54.417 L 99.167 52.333 107.250 52.333 L 115.333 52.333 115.333 50.667 L 115.333 49.000 105.167 49.000 L 95.000 49.000 95.000 58.250 M132.417 50.176 C 132.050 50.822,131.629 51.571,131.480 51.840 C 131.332 52.109,131.133 52.424,131.039 52.540 C 130.944 52.655,129.820 54.550,128.542 56.750 C 127.263 58.950,125.970 61.163,125.668 61.667 C 125.162 62.513,124.904 62.959,124.307 64.019 C 124.184 64.238,124.046 64.454,124.000 64.500 C 123.954 64.546,123.804 64.808,123.667 65.083 C 123.529 65.358,123.373 65.621,123.319 65.667 C 123.175 65.789,122.333 67.260,122.333 67.390 C 122.333 67.681,126.627 67.504,126.723 67.208 C 126.832 66.875,127.555 65.630,128.020 64.974 C 128.192 64.731,128.333 64.480,128.333 64.417 C 128.333 64.353,128.488 64.084,128.678 63.817 L 129.023 63.333 135.397 63.333 L 141.772 63.333 142.178 64.020 C 142.401 64.397,142.733 64.955,142.917 65.259 C 143.100 65.563,143.468 66.191,143.735 66.656 L 144.220 67.500 146.276 67.500 C 147.559 67.500,148.333 67.436,148.333 67.331 C 148.333 67.162,145.867 62.826,145.680 62.667 C 145.627 62.621,145.471 62.358,145.333 62.083 C 145.196 61.808,145.046 61.546,145.000 61.500 C 144.954 61.454,144.816 61.238,144.693 61.019 C 144.569 60.800,144.326 60.369,144.151 60.060 C 143.976 59.752,143.686 59.240,143.506 58.921 C 143.325 58.603,142.995 58.060,142.772 57.713 C 142.548 57.367,141.521 55.621,140.490 53.833 C 139.458 52.046,138.561 50.546,138.496 50.500 C 138.431 50.454,138.328 50.257,138.268 50.061 C 137.964 49.088,137.720 49.000,135.314 49.001 L 133.083 49.002 132.417 50.176 M154.833 58.250 L 154.833 67.500 164.917 67.500 L 175.000 67.500 175.000 65.833 L 175.000 64.167 166.833 64.167 L 158.667 64.167 158.667 56.583 L 158.667 49.000 156.750 49.000 L 154.833 49.000 154.833 58.250 M178.167 50.667 L 178.167 52.333 182.667 52.333 L 187.167 52.333 187.167 59.917 L 187.167 67.500 189.167 67.500 L 191.167 67.500 191.167 59.917 L 191.167 52.333 195.667 52.333 L 200.167 52.333 200.167 50.667 L 200.167 49.000 189.167 49.000 L 178.167 49.000 178.167 50.667 M207.167 58.250 L 207.167 67.500 209.250 67.500 L 211.333 67.500 211.333 63.667 L 211.333 59.833 218.500 59.833 L 225.667 59.833 225.667 63.667 L 225.667 67.500 227.667 67.500 L 229.667 67.500 229.667 58.250 L 229.667 49.000 227.667 49.000 L 225.667 49.000 225.667 52.750 L 225.667 56.500 218.500 56.500 L 211.333 56.500 211.333 52.750 L 211.333 49.000 209.250 49.000 L 207.167 49.000 207.167 58.250 M253.500 58.250 L 253.500 67.500 255.500 67.500 L 257.500 67.500 257.500 63.667 L 257.500 59.833 264.750 59.833 L 272.000 59.833 272.000 63.667 L 272.000 67.500 274.000 67.500 L 276.000 67.500 276.000 58.250 L 276.000 49.000 274.000 49.000 L 272.000 49.000 272.000 52.750 L 272.000 56.500 264.750 56.500 L 257.500 56.500 257.500 52.750 L 257.500 49.000 255.500 49.000 L 253.500 49.000 253.500 58.250 M283.000 55.137 C 283.000 61.793,283.033 62.080,283.971 63.583 C 287.171 68.714,299.151 69.375,303.667 64.670 C 304.806 63.483,304.929 63.322,305.083 62.821 C 305.152 62.598,305.292 62.311,305.395 62.183 C 305.525 62.021,305.600 59.956,305.637 55.475 L 305.691 49.000 303.601 49.000 L 301.512 49.000 301.464 55.221 L 301.417 61.442 301.019 62.021 C 298.710 65.390,289.613 65.283,287.467 61.862 C 287.087 61.256,287.083 61.188,287.034 55.125 L 286.985 49.000 284.992 49.000 L 283.000 49.000 283.000 55.137 M312.667 58.250 L 312.667 67.500 320.042 67.497 C 328.032 67.494,328.566 67.443,330.549 66.502 C 333.804 64.957,334.525 61.253,332.053 58.781 C 331.623 58.351,331.206 58.000,331.125 58.000 C 331.044 58.000,331.229 57.681,331.537 57.292 C 333.529 54.768,332.824 51.696,329.892 50.124 C 327.977 49.098,327.126 49.005,319.542 49.003 L 312.667 49.000 312.667 58.250 M327.380 52.809 C 328.713 53.465,329.037 54.771,328.088 55.663 C 327.290 56.412,326.272 56.556,321.292 56.626 L 316.667 56.690 316.667 54.501 L 316.667 52.311 321.625 52.364 C 326.440 52.415,326.606 52.428,327.380 52.809 M135.693 53.167 C 135.815 53.442,135.971 53.667,136.041 53.667 C 136.110 53.667,136.167 53.731,136.167 53.809 C 136.167 53.887,136.580 54.618,137.085 55.434 C 137.590 56.249,138.053 57.029,138.114 57.167 C 138.176 57.304,138.269 57.454,138.321 57.500 C 138.417 57.584,138.566 57.832,139.296 59.125 L 139.695 59.833 135.336 59.833 L 130.977 59.833 131.302 59.375 C 131.481 59.123,131.805 58.609,132.022 58.234 C 135.601 52.042,135.349 52.389,135.693 53.167 M328.000 60.283 C 329.754 61.134,330.111 62.170,328.996 63.176 C 328.018 64.059,327.953 64.068,322.125 64.131 L 316.667 64.191 316.667 61.998 L 316.667 59.805 321.958 59.862 C 326.996 59.916,327.286 59.936,328.000 60.283 M33.083 86.937 C 29.209 87.939,29.905 90.658,34.167 91.166 C 36.795 91.480,37.514 92.034,36.166 92.708 C 35.077 93.253,32.988 93.003,32.221 92.236 C 31.583 91.598,30.281 91.640,30.516 92.292 C 31.569 95.219,38.832 94.875,38.444 91.917 C 38.274 90.619,37.367 90.130,34.250 89.655 C 32.189 89.340,31.738 88.898,32.958 88.389 C 34.021 87.945,36.667 88.511,36.667 89.183 C 36.667 89.266,37.042 89.333,37.500 89.333 C 38.467 89.333,38.594 89.043,37.970 88.250 C 37.250 87.335,34.452 86.583,33.083 86.937 M42.083 86.989 C 40.628 87.344,40.013 87.942,40.005 89.010 C 39.996 90.350,40.786 90.846,43.446 91.175 C 45.232 91.396,46.000 91.683,46.000 92.131 C 46.000 93.171,42.720 93.317,41.657 92.324 C 41.225 91.921,40.988 91.833,40.324 91.833 L 39.517 91.833 39.683 92.310 C 40.735 95.327,48.173 94.836,47.601 91.787 C 47.375 90.580,46.438 90.095,43.500 89.664 C 41.358 89.349,40.938 88.972,42.111 88.415 C 43.119 87.936,45.192 88.310,45.836 89.087 C 46.194 89.518,47.501 89.417,47.497 88.958 C 47.488 87.606,44.304 86.448,42.083 86.989 M60.250 86.978 C 59.043 87.298,58.218 87.963,58.153 88.667 C 58.003 90.299,58.764 90.837,61.703 91.179 C 64.010 91.447,64.855 92.075,63.725 92.680 C 62.654 93.253,59.500 92.779,59.500 92.045 C 59.500 91.900,59.215 91.833,58.587 91.833 L 57.675 91.833 57.849 92.292 C 58.902 95.071,65.833 94.963,65.833 92.166 C 65.833 91.072,64.790 90.137,63.333 89.927 C 60.190 89.474,59.667 89.332,59.667 88.930 C 59.667 87.904,63.125 88.029,64.003 89.087 C 64.389 89.552,65.667 89.414,65.667 88.907 C 65.667 88.489,64.793 87.501,64.421 87.499 C 64.327 87.498,64.028 87.382,63.757 87.241 C 63.192 86.946,60.992 86.782,60.250 86.978 M69.583 86.937 C 68.085 87.325,67.333 88.033,67.333 89.056 C 67.333 90.320,68.286 90.886,70.908 91.181 C 72.324 91.340,72.796 91.461,73.128 91.746 L 73.549 92.108 73.180 92.452 C 72.297 93.275,69.922 93.195,68.976 92.311 C 68.558 91.921,68.317 91.833,67.653 91.833 L 66.840 91.833 67.035 92.292 C 68.252 95.154,75.000 94.997,75.000 92.107 C 75.000 91.079,74.192 90.256,72.963 90.032 C 72.479 89.943,71.414 89.752,70.596 89.606 C 68.838 89.294,68.616 89.143,69.137 88.623 C 69.861 87.900,72.707 88.237,73.217 89.106 C 73.419 89.451,75.000 89.417,75.000 89.067 C 75.000 87.773,71.568 86.422,69.583 86.937 M155.750 86.940 C 151.754 87.555,150.889 92.188,154.459 93.854 C 155.507 94.343,158.049 94.401,159.125 93.960 C 159.734 93.710,159.833 93.704,159.833 93.918 C 159.833 94.105,160.039 94.167,160.667 94.167 L 161.500 94.167 161.500 92.000 L 161.500 89.833 159.833 89.833 L 158.167 89.833 158.167 90.575 L 158.167 91.316 159.016 91.366 L 159.866 91.417 159.507 91.872 C 158.013 93.764,153.833 92.872,153.833 90.661 C 153.833 88.419,157.665 87.474,159.464 89.273 C 159.679 89.488,160.293 89.265,160.987 88.720 C 161.171 88.576,160.151 87.753,159.333 87.387 C 158.419 86.978,156.808 86.777,155.750 86.940 M176.417 86.978 C 171.045 88.399,172.189 94.260,177.833 94.236 C 180.913 94.223,182.665 92.899,182.665 90.583 C 182.665 88.038,179.443 86.178,176.417 86.978 M186.250 86.932 C 182.403 87.871,183.199 90.675,187.456 91.181 C 189.532 91.428,190.377 91.825,189.915 92.336 C 189.005 93.341,185.667 93.078,185.194 91.964 C 185.061 91.651,183.667 91.824,183.667 92.154 C 183.667 93.861,188.163 95.005,190.333 93.851 C 192.841 92.517,191.857 90.309,188.544 89.840 C 185.688 89.435,185.208 89.217,185.819 88.608 C 186.521 87.908,189.460 88.267,189.776 89.092 C 189.953 89.553,191.717 89.422,191.571 88.958 C 191.128 87.551,188.232 86.448,186.250 86.932 M198.500 86.939 C 197.060 87.219,196.167 88.013,196.167 89.015 C 196.167 90.305,197.076 90.871,199.616 91.164 C 202.230 91.465,202.952 92.001,201.669 92.689 C 200.594 93.265,198.624 93.072,197.810 92.311 C 197.241 91.780,195.833 91.600,195.833 92.059 C 195.833 94.526,202.474 95.167,203.734 92.821 C 204.141 92.064,203.998 91.445,203.254 90.743 C 202.692 90.213,202.488 90.152,199.625 89.651 C 197.708 89.316,197.411 89.116,198.018 88.567 C 198.769 87.890,202.167 88.394,202.167 89.183 C 202.167 89.266,202.550 89.333,203.018 89.333 C 203.863 89.333,203.869 89.330,203.757 88.875 C 203.439 87.576,200.602 86.531,198.500 86.939 M337.667 86.936 C 336.425 87.170,335.333 88.132,335.333 88.992 C 335.333 90.239,336.382 90.891,338.842 91.173 C 340.623 91.378,341.500 91.671,341.500 92.062 C 341.500 93.181,337.922 93.319,336.921 92.239 C 336.489 91.773,335.000 91.632,335.000 92.056 C 335.000 94.279,340.967 95.138,342.746 93.171 C 343.395 92.454,343.061 91.042,342.095 90.409 C 341.810 90.222,337.722 89.353,337.042 89.334 C 336.872 89.330,337.055 88.662,337.276 88.479 C 337.966 87.906,341.001 88.373,341.278 89.096 C 341.429 89.489,343.000 89.422,343.000 89.022 C 343.000 87.739,339.881 86.520,337.667 86.936 M374.833 86.939 C 371.026 87.676,371.899 90.701,376.057 91.179 C 378.475 91.457,379.126 91.866,378.316 92.599 C 377.557 93.286,374.000 92.854,374.000 92.076 C 374.000 91.893,373.774 91.833,373.083 91.833 C 372.579 91.833,372.167 91.867,372.167 91.909 C 372.167 91.950,372.260 92.193,372.375 92.448 C 373.637 95.259,380.654 94.787,380.278 91.917 C 380.108 90.619,379.201 90.130,376.083 89.655 C 374.573 89.424,374.167 89.265,374.167 88.902 C 374.167 87.905,378.057 88.086,378.447 89.102 C 378.596 89.490,380.167 89.417,380.167 89.022 C 380.167 87.739,377.029 86.513,374.833 86.939 M23.601 87.375 C 23.469 87.581,22.857 88.612,22.241 89.667 C 21.185 91.474,20.839 92.074,20.307 93.019 C 20.184 93.238,20.040 93.454,19.988 93.500 C 19.500 93.926,19.710 94.167,20.571 94.167 C 21.269 94.167,21.488 94.103,21.575 93.875 C 21.635 93.715,21.850 93.340,22.051 93.043 L 22.417 92.502 24.757 92.501 L 27.097 92.500 27.583 93.333 L 28.070 94.167 28.952 94.167 C 29.437 94.167,29.833 94.136,29.833 94.099 C 29.833 93.993,28.121 91.093,28.003 91.000 C 27.945 90.954,27.799 90.673,27.679 90.375 C 27.558 90.077,27.412 89.833,27.354 89.833 C 27.296 89.833,27.142 89.590,27.012 89.292 C 26.883 88.994,26.733 88.712,26.680 88.667 C 26.519 88.528,25.986 87.603,25.887 87.292 C 25.734 86.809,23.921 86.875,23.601 87.375 M49.000 90.583 L 49.000 94.167 52.917 94.167 L 56.833 94.167 56.833 93.500 L 56.833 92.833 53.750 92.833 L 50.667 92.833 50.667 92.083 L 50.667 91.333 52.917 91.333 L 55.167 91.333 55.167 90.583 L 55.167 89.833 52.917 89.833 L 50.667 89.833 50.667 89.083 L 50.667 88.333 53.750 88.333 L 56.833 88.333 56.833 87.667 L 56.833 87.000 52.917 87.000 L 49.000 87.000 49.000 90.583 M76.333 90.583 L 76.333 94.167 77.162 94.167 L 77.990 94.167 78.037 91.972 L 78.083 89.777 79.083 91.012 C 79.633 91.692,80.222 92.398,80.392 92.582 C 80.562 92.766,80.815 93.085,80.953 93.292 C 81.279 93.777,81.979 93.776,82.420 93.289 C 82.605 93.084,83.317 92.215,84.003 91.357 L 85.250 89.797 85.297 91.982 L 85.343 94.167 86.172 94.167 L 87.000 94.167 87.000 90.583 L 87.000 87.000 86.171 87.000 C 85.367 87.000,85.320 87.028,84.663 87.875 C 84.290 88.356,83.707 89.080,83.367 89.484 C 83.028 89.888,82.637 90.383,82.500 90.584 C 81.703 91.748,81.759 91.781,79.500 88.855 L 78.083 87.021 77.208 87.010 L 76.333 87.000 76.333 90.583 M88.333 90.583 L 88.333 94.167 92.333 94.167 L 96.333 94.167 96.333 93.500 L 96.333 92.833 93.167 92.833 L 90.000 92.833 90.000 92.083 L 90.000 91.333 92.250 91.333 L 94.500 91.333 94.500 90.583 L 94.500 89.833 92.250 89.833 L 90.000 89.833 90.000 89.083 L 90.000 88.333 93.167 88.333 L 96.333 88.333 96.333 87.667 L 96.333 87.000 92.333 87.000 L 88.333 87.000 88.333 90.583 M97.833 90.583 L 97.833 94.167 98.662 94.167 L 99.491 94.167 99.537 91.763 L 99.583 89.359 100.898 90.555 C 101.622 91.212,102.784 92.293,103.482 92.957 C 104.725 94.141,104.767 94.165,105.625 94.166 L 106.500 94.167 106.500 90.583 L 106.500 87.000 105.671 87.000 L 104.842 87.000 104.796 89.496 L 104.750 91.992 103.742 91.038 C 99.538 87.057,99.475 87.007,98.625 87.004 L 97.833 87.000 97.833 90.583 M107.833 87.667 L 107.833 88.333 109.583 88.333 L 111.333 88.333 111.333 91.250 L 111.333 94.167 112.167 94.167 L 113.000 94.167 113.000 91.250 L 113.000 88.333 114.750 88.333 L 116.500 88.333 116.500 87.667 L 116.500 87.000 112.167 87.000 L 107.833 87.000 107.833 87.667 M128.667 90.583 L 128.667 94.167 131.197 94.167 C 135.454 94.167,137.333 93.069,137.333 90.583 C 137.333 88.099,135.433 87.000,131.139 87.000 L 128.667 87.000 128.667 90.583 M138.667 90.583 L 138.667 94.167 139.500 94.167 L 140.333 94.167 140.333 90.583 L 140.333 87.000 139.500 87.000 L 138.667 87.000 138.667 90.583 M145.439 87.542 C 145.280 87.840,144.985 88.358,144.783 88.694 C 143.477 90.871,141.667 93.997,141.667 94.074 C 141.667 94.125,142.060 94.167,142.542 94.166 L 143.417 94.166 143.885 93.333 L 144.353 92.500 146.741 92.500 L 149.129 92.500 149.397 93.042 C 149.898 94.054,150.057 94.167,150.982 94.167 L 151.844 94.167 151.441 93.445 C 150.687 92.094,150.583 91.917,150.500 91.833 C 150.420 91.753,150.146 91.292,149.758 90.583 C 149.658 90.400,149.142 89.519,148.612 88.625 L 147.647 87.000 146.688 87.000 C 145.776 87.000,145.714 87.027,145.439 87.542 M163.000 90.583 L 163.000 94.167 163.833 94.167 L 164.667 94.167 164.667 91.750 C 164.667 89.085,164.658 89.107,165.402 89.875 C 165.691 90.173,166.600 91.025,167.422 91.769 C 168.244 92.512,169.168 93.356,169.476 93.644 C 169.945 94.082,170.166 94.167,170.851 94.167 L 171.667 94.167 171.667 90.583 L 171.667 87.000 170.838 87.000 L 170.009 87.000 169.963 89.433 L 169.917 91.866 169.417 91.414 C 169.142 91.166,168.204 90.308,167.333 89.509 C 164.525 86.930,164.624 87.000,163.770 87.000 L 163.000 87.000 163.000 90.583 M193.000 90.583 L 193.000 94.167 193.833 94.167 L 194.667 94.167 194.667 90.583 L 194.667 87.000 193.833 87.000 L 193.000 87.000 193.000 90.583 M216.167 87.667 L 216.167 88.333 217.917 88.333 L 219.667 88.333 219.667 91.250 L 219.667 94.167 220.417 94.167 L 221.167 94.167 221.167 91.250 L 221.167 88.333 222.917 88.333 L 224.667 88.333 224.667 87.667 L 224.667 87.000 220.417 87.000 L 216.167 87.000 216.167 87.667 M226.167 90.583 L 226.167 94.167 227.000 94.167 L 227.833 94.167 227.833 92.667 L 227.833 91.167 228.887 91.167 L 229.941 91.167 231.012 92.658 L 232.083 94.149 233.129 94.158 L 234.174 94.167 233.884 93.708 C 233.443 93.013,232.270 91.430,232.110 91.314 C 232.032 91.257,232.181 91.135,232.442 91.044 C 233.356 90.722,233.833 90.053,233.833 89.092 C 233.833 87.355,233.024 87.000,229.063 87.000 L 226.167 87.000 226.167 90.583 M235.500 90.583 L 235.500 94.167 239.417 94.167 L 243.333 94.167 243.333 93.500 L 243.333 92.833 240.250 92.833 L 237.167 92.833 237.167 92.083 L 237.167 91.333 239.417 91.333 L 241.667 91.333 241.667 90.583 L 241.667 89.833 239.417 89.833 L 237.167 89.833 237.167 89.083 L 237.167 88.333 240.250 88.333 L 243.333 88.333 243.333 87.667 L 243.333 87.000 239.417 87.000 L 235.500 87.000 235.500 90.583 M248.877 87.208 C 248.745 87.376,247.656 89.241,244.886 94.042 C 244.846 94.110,245.218 94.167,245.712 94.167 C 246.524 94.167,246.633 94.122,246.847 93.708 C 246.977 93.456,247.177 93.151,247.292 93.030 C 247.406 92.909,247.500 92.740,247.500 92.655 C 247.500 92.567,248.530 92.500,249.890 92.500 L 252.280 92.500 252.734 93.333 L 253.187 94.167 254.098 94.167 L 255.008 94.167 254.712 93.609 C 254.550 93.302,253.629 91.692,252.667 90.030 L 250.917 87.009 249.979 87.005 C 249.422 87.002,248.974 87.085,248.877 87.208 M254.500 87.667 L 254.500 88.333 256.167 88.333 L 257.833 88.333 257.833 91.250 L 257.833 94.167 258.667 94.167 L 259.500 94.167 259.500 91.250 L 259.500 88.333 261.250 88.333 L 263.000 88.333 263.000 87.667 L 263.000 87.000 258.750 87.000 L 254.500 87.000 254.500 87.667 M264.667 90.583 L 264.667 94.167 265.417 94.167 L 266.167 94.167 266.172 91.958 L 266.178 89.750 266.520 90.167 C 266.708 90.396,267.026 90.771,267.227 91.000 C 267.428 91.229,267.998 91.923,268.493 92.542 C 269.568 93.885,270.065 94.017,270.691 93.125 C 270.900 92.827,271.154 92.508,271.256 92.417 C 271.358 92.325,271.849 91.728,272.346 91.090 L 273.250 89.930 273.297 92.048 L 273.343 94.167 274.172 94.167 L 275.000 94.167 275.000 90.583 L 275.000 87.000 274.208 87.007 C 273.435 87.013,273.400 87.037,272.667 88.031 C 272.254 88.590,271.802 89.168,271.661 89.316 C 271.521 89.463,271.114 89.958,270.758 90.417 C 270.401 90.875,270.055 91.314,269.988 91.392 C 269.850 91.553,269.469 91.199,268.756 90.245 C 268.484 89.881,268.184 89.498,268.089 89.394 C 267.994 89.289,267.804 89.062,267.667 88.889 C 266.137 86.961,266.184 87.000,265.406 87.000 L 264.667 87.000 264.667 90.583 M276.667 90.583 L 276.667 94.167 280.583 94.167 L 284.500 94.167 284.500 93.500 L 284.500 92.833 281.333 92.833 L 278.167 92.833 278.167 92.083 L 278.167 91.333 280.417 91.333 L 282.667 91.333 282.667 90.583 L 282.667 89.833 280.417 89.833 L 278.167 89.833 278.167 89.083 L 278.167 88.333 281.333 88.333 L 284.500 88.333 284.500 87.667 L 284.500 87.000 280.583 87.000 L 276.667 87.000 276.667 90.583 M285.833 90.583 L 285.833 94.167 286.662 94.167 L 287.491 94.167 287.537 91.668 L 287.583 89.169 288.765 90.293 C 292.719 94.053,292.854 94.159,293.708 94.163 L 294.500 94.167 294.500 90.583 L 294.500 87.000 293.750 87.000 L 293.000 87.000 293.000 89.417 C 293.000 92.188,293.062 92.115,291.750 90.900 C 291.200 90.390,290.154 89.436,289.426 88.778 C 288.698 88.121,287.966 87.452,287.801 87.292 C 287.596 87.093,287.235 87.000,286.667 87.000 L 285.833 87.000 285.833 90.583 M296.000 87.667 L 296.000 88.333 297.750 88.333 L 299.500 88.333 299.500 91.250 L 299.500 94.167 300.250 94.167 L 301.000 94.167 301.000 91.250 L 301.000 88.333 302.750 88.333 L 304.500 88.333 304.500 87.667 L 304.500 87.000 300.250 87.000 L 296.000 87.000 296.000 87.667 M316.833 90.583 L 316.833 94.167 317.667 94.167 L 318.500 94.167 318.500 92.667 L 318.500 91.167 319.560 91.167 C 320.511 91.167,320.652 91.211,320.935 91.602 C 321.108 91.841,321.569 92.454,321.958 92.964 C 322.348 93.474,322.667 93.953,322.667 94.029 C 322.667 94.105,323.154 94.167,323.750 94.167 C 325.057 94.167,325.050 94.294,323.833 92.652 C 322.878 91.365,322.748 91.000,323.242 91.000 C 324.143 91.000,324.895 89.282,324.426 88.294 C 323.902 87.189,323.230 87.000,319.818 87.000 L 316.833 87.000 316.833 90.583 M326.167 90.583 L 326.167 94.167 330.083 94.167 L 334.000 94.167 334.000 93.500 L 334.000 92.833 330.917 92.833 L 327.833 92.833 327.833 92.083 L 327.833 91.333 330.083 91.333 L 332.333 91.333 332.333 90.583 L 332.333 89.833 330.083 89.833 L 327.833 89.833 327.833 89.083 L 327.833 88.333 330.917 88.333 L 334.000 88.333 334.000 87.667 L 334.000 87.000 330.083 87.000 L 326.167 87.000 326.167 90.583 M344.667 89.661 L 344.667 92.322 345.184 92.911 C 347.015 94.997,352.155 94.665,353.101 92.400 C 353.263 92.011,353.333 91.116,353.333 89.422 L 353.333 87.000 352.500 87.000 L 351.667 87.000 351.664 89.208 C 351.662 91.896,351.621 92.060,350.857 92.520 C 350.037 93.012,347.996 93.049,347.249 92.584 C 346.359 92.030,346.333 91.941,346.333 89.385 L 346.333 87.000 345.500 87.000 L 344.667 87.000 344.667 89.661 M354.833 90.583 L 354.833 94.167 358.750 94.167 L 362.667 94.167 362.667 93.500 L 362.667 92.833 359.583 92.833 L 356.500 92.833 356.500 89.917 L 356.500 87.000 355.667 87.000 L 354.833 87.000 354.833 90.583 M362.667 87.667 L 362.667 88.333 364.417 88.333 L 366.167 88.333 366.167 91.250 L 366.167 94.167 367.000 94.167 L 367.833 94.167 367.833 91.250 L 367.833 88.333 369.583 88.333 L 371.333 88.333 371.333 87.667 L 371.333 87.000 367.000 87.000 L 362.667 87.000 362.667 87.667 M179.663 88.665 C 180.963 89.328,181.433 90.418,180.850 91.417 C 179.429 93.852,174.750 93.213,174.750 90.583 C 174.750 88.640,177.506 87.564,179.663 88.665 M133.972 88.641 C 137.252 89.887,135.689 92.833,131.748 92.833 L 130.333 92.833 130.333 90.583 L 130.333 88.333 131.748 88.333 C 132.720 88.333,133.417 88.430,133.972 88.641 M231.958 88.657 C 232.871 89.418,232.064 89.833,229.673 89.833 L 227.833 89.833 227.833 89.083 L 227.833 88.333 229.708 88.339 C 231.293 88.344,231.641 88.393,231.958 88.657 M322.589 88.603 C 323.713 89.339,322.864 89.833,320.474 89.833 L 318.500 89.833 318.500 89.083 L 318.500 88.333 320.339 88.333 C 321.752 88.333,322.274 88.396,322.589 88.603 M25.249 89.386 C 25.383 89.678,25.683 90.198,25.916 90.542 L 26.338 91.167 24.836 91.167 C 24.009 91.167,23.333 91.124,23.333 91.071 C 23.333 90.782,24.711 88.675,24.845 88.758 C 24.933 88.812,25.115 89.095,25.249 89.386 M147.486 89.848 C 147.860 90.498,148.167 91.060,148.167 91.098 C 148.167 91.136,147.484 91.167,146.650 91.167 L 145.134 91.167 145.496 90.625 C 145.695 90.327,145.898 89.952,145.948 89.792 C 145.998 89.631,146.105 89.500,146.186 89.500 C 146.267 89.500,146.333 89.402,146.333 89.283 C 146.333 89.104,146.642 88.667,146.769 88.667 C 146.789 88.667,147.111 89.198,147.486 89.848 M250.500 89.588 C 250.500 89.708,250.559 89.831,250.630 89.861 C 250.702 89.892,250.925 90.198,251.125 90.542 L 251.489 91.167 249.994 91.167 C 248.255 91.167,248.308 91.259,249.191 89.772 L 249.883 88.608 250.191 88.989 C 250.361 89.199,250.500 89.468,250.500 89.588 " stroke="none" fill="#243c5c" fill-rule="evenodd"></path><path id="path1" d="" stroke="none" fill="#283c5c" fill-rule="evenodd"></path><path id="path2" d="" stroke="none" fill="#283c5c" fill-rule="evenodd"></path><path id="path3" d="" stroke="none" fill="#283c5c" fill-rule="evenodd"></path><path id="path4" d="" stroke="none" fill="#283c5c" fill-rule="evenodd"></path></g></svg>